<svg height="512" viewBox="0 0 64 64" width="512" xmlns="http://www.w3.org/2000/svg" xmlns:xlink="http://www.w3.org/1999/xlink"><linearGradient id="New_Gradient_Swatch_2" gradientUnits="userSpaceOnUse" x1="32" x2="32" y1="2.099" y2="58.719"><stop offset="0" stop-color="#fc5c7d"/><stop offset=".129" stop-color="#f35e85"/><stop offset=".343" stop-color="#d9659b"/><stop offset=".616" stop-color="#b070bf"/><stop offset=".934" stop-color="#777ff0"/><stop offset="1" stop-color="#6a82fb"/></linearGradient><linearGradient id="New_Gradient_Swatch_2-2" x1="20" x2="20" xlink:href="#New_Gradient_Swatch_2" y1="2.099" y2="58.719"/><linearGradient id="New_Gradient_Swatch_2-3" x1="49" x2="49" xlink:href="#New_Gradient_Swatch_2" y1="2.099" y2="58.719"/><path d="m57 7h-8v-.394a3.99 3.99 0 0 0 -3.541-3.973 122.62 122.62 0 0 0 -13.459-.633 122.62 122.62 0 0 0 -13.459.633 3.99 3.99 0 0 0 -3.541 3.973v.394h-8a5.006 5.006 0 0 0 -5 5v29a5.006 5.006 0 0 0 5 5h18v2h-3a3 3 0 0 0 0 6h3v2h-9a3 3 0 0 0 -3 3v2a1 1 0 0 0 1 1h36a1 1 0 0 0 1-1v-2a3 3 0 0 0 -3-3h-9v-2h5.877l3.881.97a.984.984 0 0 0 .242.03h5a1 1 0 0 0 1-1v-6a1 1 0 0 0 -1-1h-5a.984.984 0 0 0 -.242.03l-3.881.97h-5.877v-2h18a5.006 5.006 0 0 0 5-5v-29a5.006 5.006 0 0 0 -5-5zm-8 2a11 11 0 1 1 -11 11 11.013 11.013 0 0 1 11-11zm-32-2.394a1.99 1.99 0 0 1 1.764-1.985 120.429 120.429 0 0 1 13.236-.621 120.429 120.429 0 0 1 13.236.621 1.99 1.99 0 0 1 1.764 1.985v.394h-30zm10 39.394h2v2h-2zm6 6h-2v-2h2zm2-2h2v2h-2zm-4 6v-2h2v2zm-2-4h-2v-2h2zm2-4v-2h2v2zm-9 4a1 1 0 0 1 0-2h3v2zm5 2h2v2h-2zm22 5v1h-34v-1a1 1 0 0 1 1-1h32a1 1 0 0 1 1 1zm-12-3h-2v-2h2zm8-6a.984.984 0 0 0 .242-.03l3.881-.97h3.877v1h-4v2h4v1h-3.877l-3.881-.97a.984.984 0 0 0 -.242-.03h-6v-2zm-8-2h-2v-2h2zm23-7a3 3 0 0 1 -3 3h-50a3 3 0 0 1 -3-3v-29a3 3 0 0 1 3-3h35.1a12.987 12.987 0 1 0 17.9 17.9zm-4.1-32h1.1a3 3 0 0 1 3 3v1.1a13.073 13.073 0 0 0 -4.1-4.1z" fill="url(#New_Gradient_Swatch_2)"/><path d="m30 12h-20a3 3 0 0 0 -3 3v23a3 3 0 0 0 3 3h20a3 3 0 0 0 3-3v-23a3 3 0 0 0 -3-3zm-20 2h20a1 1 0 0 1 1 1v13.586l-5.293-5.293a1 1 0 0 0 -1.414 0l-4.793 4.793-3.793-3.793a1 1 0 0 0 -1.414 0l-5.293 5.293v-14.586a1 1 0 0 1 1-1zm20 25h-20a1 1 0 0 1 -1-1v-5.586l6-6 6.293 6.293 1.414-1.414-1.793-1.793 4.086-4.086 6 6v6.586a1 1 0 0 1 -1 1z" fill="url(#New_Gradient_Swatch_2-2)"/><g fill="url(#New_Gradient_Swatch_2-3)"><path d="m49 29a9 9 0 1 0 -9-9 9.01 9.01 0 0 0 9 9zm0-16a7 7 0 1 1 -7 7 7.009 7.009 0 0 1 7-7z"/><path d="m41 35h16v2h-16z"/><path d="m41 39h16v2h-16z"/></g><path d="m20 23a3 3 0 1 0 -3-3 3 3 0 0 0 3 3zm0-4a1 1 0 1 1 -1 1 1 1 0 0 1 1-1z" fill="url(#New_Gradient_Swatch_2-2)"/></svg>