<svg height="512" viewBox="0 0 64 64" width="512" xmlns="http://www.w3.org/2000/svg" xmlns:xlink="http://www.w3.org/1999/xlink"><linearGradient id="New_Gradient_Swatch_2" gradientUnits="userSpaceOnUse" x1="47.526" x2="47.526" y1="2.574" y2="58.703"><stop offset="0" stop-color="#fc5c7d"/><stop offset=".129" stop-color="#f35e85"/><stop offset=".343" stop-color="#d9659b"/><stop offset=".616" stop-color="#b070bf"/><stop offset=".934" stop-color="#777ff0"/><stop offset="1" stop-color="#6a82fb"/></linearGradient><linearGradient id="New_Gradient_Swatch_2-2" x1="57.544" x2="57.544" xlink:href="#New_Gradient_Swatch_2" y1="2.574" y2="58.703"/><linearGradient id="New_Gradient_Swatch_2-3" x1="32.21" x2="32.21" xlink:href="#New_Gradient_Swatch_2" y1="2.574" y2="58.703"/><path d="m46.884 32.352a64.052 64.052 0 0 1 4.826 5.505c.792 1.041 1.915 2.624 3.335 4.706l1.655-1.126c-1.44-2.111-2.582-3.723-3.394-4.79a65.519 65.519 0 0 0 -4.975-5.678 56.684 56.684 0 0 1 -4.288-4.869 26.719 26.719 0 0 1 -2.943-5.477c-.3-.682-.609-1.37-.937-2.056l-1.8.866c.321.668.619 1.338.941 2.063a27.942 27.942 0 0 0 3.154 5.81 58.153 58.153 0 0 0 4.426 5.046z" fill="url(#New_Gradient_Swatch_2)"/><path d="m57.254 45.842 1.664-1.109-1.088-1.626-1.66 1.118z" fill="url(#New_Gradient_Swatch_2-2)"/><path d="m45.429 33.725a60.5 60.5 0 0 1 -4.573-5.209 29.885 29.885 0 0 1 -3.389-6.209 26.279 26.279 0 0 0 -2.882-5.353 24.111 24.111 0 0 0 -3.09-3.217 10.959 10.959 0 0 0 1.155-1.721 1 1 0 0 0 -.1-1.047l-4.235-5.569a1 1 0 0 0 -1.306-.255l-22.519 13.332a1 1 0 0 0 -.343 1.383 21.594 21.594 0 0 0 14.377 10.185 1.047 1.047 0 0 0 .136.009 1 1 0 0 0 .946-1.322c-1.447-4.255 2.132-8.835 3.637-10.513a34.018 34.018 0 0 0 5.911 8.1c2.627 2.479 4.433 5.074 7.167 9 1.693 2.432 3.8 5.458 6.633 9.186 6.8 8.949 6.487 13 6.485 13.018a1 1 0 0 0 .854 1.128l6.99.97a1.062 1.062 0 0 0 .137.009 1 1 0 0 0 .895-.555l2-4.02a1 1 0 0 0 -.055-.987c-.289-.449-7.125-11.039-10.144-15a62 62 0 0 0 -4.687-5.343zm-.287 10.375c-.2-.266-.387-.529-.6-.8s-.4-.533-.6-.8l3.957-3c.208.26.418.512.623.783.183.24.384.511.594.8zm5.139-1.4c.364.52.748 1.077 1.141 1.65l-4.008 3.05c-.341-.535-.707-1.09-1.107-1.669zm-5.013-6.23c.45.482.9.98 1.346 1.489l-3.865 2.935q-.615-.834-1.181-1.615zm-38.868-16.802 2.608-1.544a16.531 16.531 0 0 0 2.882 3.381 16.2 16.2 0 0 0 5.561 3.29 9.331 9.331 0 0 0 -.123 2.924 20.188 20.188 0 0 1 -10.928-8.051zm11.6 3.178a14.165 14.165 0 0 1 -4.777-2.831 14.512 14.512 0 0 1 -2.5-2.91l16.53-9.791 3.291 4.332a11.949 11.949 0 0 1 -2.773 2.954 6.714 6.714 0 0 1 -4.451 1.237 1 1 0 0 0 -.824.266 20.2 20.2 0 0 0 -4.491 6.743zm12.521 2.016a31.092 31.092 0 0 1 -5.258-7.12 8.251 8.251 0 0 0 3.713-1.551 13.944 13.944 0 0 0 1.151-.984 22.08 22.08 0 0 1 2.861 2.958 24.818 24.818 0 0 1 2.646 4.954 31.49 31.49 0 0 0 3.624 6.605 60.891 60.891 0 0 0 4.626 5.283l-3.484 2.646c-.905-1.272-1.714-2.433-2.441-3.477-2.701-3.885-4.659-6.693-7.433-9.314zm26.324 32.679-5.433-.754c-.128-1.284-.712-3.782-2.954-7.674l4.09-3.1c2.394 3.545 4.87 7.351 5.723 8.666z" fill="url(#New_Gradient_Swatch_2-3)"/></svg>