<svg height="512" viewBox="0 0 64 64" width="512" xmlns="http://www.w3.org/2000/svg" xmlns:xlink="http://www.w3.org/1999/xlink"><linearGradient id="New_Gradient_Swatch_2" gradientUnits="userSpaceOnUse" x1="32" x2="32" y1="3.839" y2="57.224"><stop offset="0" stop-color="#fc5c7d"/><stop offset=".129" stop-color="#f35e85"/><stop offset=".343" stop-color="#d9659b"/><stop offset=".616" stop-color="#b070bf"/><stop offset=".934" stop-color="#777ff0"/><stop offset="1" stop-color="#6a82fb"/></linearGradient><linearGradient id="New_Gradient_Swatch_2-2" x1="46" x2="46" xlink:href="#New_Gradient_Swatch_2" y1="3.839" y2="57.224"/><linearGradient id="New_Gradient_Swatch_2-3" x1="42" x2="42" xlink:href="#New_Gradient_Swatch_2" y1="3.839" y2="57.224"/><path d="m10 58h3a4 4 0 0 0 4 4h30a4 4 0 0 0 4-4h3a4 4 0 0 0 4-4v-20a4 4 0 0 0 -4-4h-1.132l1.046-12.9 1.171-.1a1 1 0 0 0 .915-1v-6a1 1 0 0 0 -.324-.737.993.993 0 0 0 -.761-.263l-12.915 1.11v-4.11a4 4 0 0 0 -4-4h-12a4 4 0 0 0 -4 4v4.11l-12.915-1.11a1 1 0 0 0 -1.085 1v6a1 1 0 0 0 .915 1l1.171.1 1.046 12.9h-1.132a4 4 0 0 0 -4 4v20a4 4 0 0 0 4 4zm0-2a2 2 0 0 1 -2-2v-15h3.862l1.138 14.039v2.961zm39 2a2 2 0 0 1 -2 2h-30a2 2 0 0 1 -2-2v-4h34zm-15-35h-4v-11h4zm-5 2h2v2h2v-2h3v4h-8v-4zm1 6h4v21h-4zm24 25h-3v-2.961l1.138-14.039h3.862v15a2 2 0 0 1 -2 2zm0-24a2 2 0 0 1 2 2v3h-3.7l.406-5zm-4.922 20h-13.078v-21h1a1 1 0 0 0 1-1v-6a1 1 0 0 0 -1-1h-1v-4.367l15.894-1.363zm4.922-36.918-18 1.543v-3.992l18-1.544zm-30-9.082a2 2 0 0 1 2-2h12a2 2 0 0 1 2 2v4.282l-4.075.349a1 1 0 0 0 -.925-.631h-6a1 1 0 0 0 -.925.631l-4.075-.349zm-14 5.089 18 1.544v3.992l-18-1.543zm18 7.544v4.367h-1a1 1 0 0 0 -1 1v6a1 1 0 0 0 1 1h1v21h-13.078l-2.816-34.73zm-18 13.367h1.294l.406 5h-3.7v-3a2 2 0 0 1 2-2z" fill="url(#New_Gradient_Swatch_2)"/><path d="m45 48h2v2h-2z" fill="url(#New_Gradient_Swatch_2-2)"/><path d="m41 48h2v2h-2z" fill="url(#New_Gradient_Swatch_2-3)"/></svg>