<svg height="512" viewBox="0 0 64 64" width="512" xmlns="http://www.w3.org/2000/svg" xmlns:xlink="http://www.w3.org/1999/xlink"><linearGradient id="New_Gradient_Swatch_2" gradientUnits="userSpaceOnUse" x1="32" x2="32" y1="1.845" y2="58.816"><stop offset="0" stop-color="#fc5c7d"/><stop offset=".129" stop-color="#f35e85"/><stop offset=".343" stop-color="#d9659b"/><stop offset=".616" stop-color="#b070bf"/><stop offset=".934" stop-color="#777ff0"/><stop offset="1" stop-color="#6a82fb"/></linearGradient><linearGradient id="New_Gradient_Swatch_2-2" gradientTransform="matrix(.025 1 -1 .025 39.423 19.579)" x1="9.674" x2="9.674" xlink:href="#New_Gradient_Swatch_2" y1="1.845" y2="58.816"/><linearGradient id="New_Gradient_Swatch_2-3" gradientTransform="matrix(1 .024 -.024 1 1.334 -1.324)" x1="54.926" x2="54.926" xlink:href="#New_Gradient_Swatch_2" y1="1.845" y2="58.816"/><linearGradient id="New_Gradient_Swatch_2-4" gradientTransform="matrix(1 .025 -.025 1 1.109 -1.373)" x1="54.651" x2="54.651" xlink:href="#New_Gradient_Swatch_2" y1="1.845" y2="58.816"/><linearGradient id="New_Gradient_Swatch_2-6" x1="40" x2="40" xlink:href="#New_Gradient_Swatch_2" y1="1.845" y2="58.816"/><linearGradient id="New_Gradient_Swatch_2-7" x1="24" x2="24" xlink:href="#New_Gradient_Swatch_2" y1="1.845" y2="58.816"/><path d="m34 28h-1v-1h-2v1h-1a3 3 0 0 0 -3 3v2a3 3 0 0 0 3 3h1v1h2v-1h1a3 3 0 0 0 3-3v-2a3 3 0 0 0 -3-3zm-4 6a1 1 0 0 1 -1-1v-2a1 1 0 0 1 1-1h1v4zm5-1a1 1 0 0 1 -1 1h-1v-4h1a1 1 0 0 1 1 1z" fill="url(#New_Gradient_Swatch_2)"/><path d="m-.329 29h20.006v2.001h-20.006z" fill="url(#New_Gradient_Swatch_2-2)" transform="matrix(.025 -1 1 .025 -20.559 38.921)"/><path d="m53.926 53h2.001v2.001h-2.001z" fill="url(#New_Gradient_Swatch_2-3)" transform="matrix(1 -.024 .024 1 -1.302 1.357)"/><path d="m53.651 34.997h2.001v16.005h-2.001z" fill="url(#New_Gradient_Swatch_2-4)" transform="matrix(1 -.025 .025 1 -1.074 1.401)"/><path d="m36.02 56.178a2.992 2.992 0 0 0 .98 5.822h14a2.992 2.992 0 0 0 .98-5.822l-.98-39.203v-1.975a4 4 0 0 0 -4-4h-1v-3.184a2.993 2.993 0 0 0 -1-5.816h-8a2.993 2.993 0 0 0 -1 5.816v3.368a3 3 0 0 0 -2 2.816v5h-4v-5a3 3 0 0 0 -2-2.816v-3.368a2.993 2.993 0 0 0 -1-5.816h-8a2.993 2.993 0 0 0 -1 5.816v3.184h-1a4 4 0 0 0 -4 4v1.975l-.98 39.2a2.992 2.992 0 0 0 .98 5.825h14a2.992 2.992 0 0 0 .98-5.822l-.38-15.178h1.4v3a1 1 0 0 0 1 1h4a1 1 0 0 0 1-1v-3h1.4zm-2.02-17.178h-12a2 2 0 0 1 -2-2v-10a2 2 0 0 1 2-2h20a2 2 0 0 1 2 2v10a2 2 0 0 1 -2 2zm8 2a4 4 0 0 0 4-4v-10a4 4 0 0 0 -4-4h-6v-5h13.024l.825 33h-11.7l.251-10zm-3.9 12h11.8l.075 3h-11.949zm12.9 7h-14a1 1 0 0 1 0-2h14a1 1 0 0 1 0 2zm-13-52h6v3h-6zm-1-4h8a1 1 0 0 1 0 2h-8a1 1 0 0 1 0-2zm0 9h10a2 2 0 0 1 2 2v1h-13v-2a1 1 0 0 1 1-1zm-3 10h-4v-2h4zm-15-19h8a1 1 0 0 1 0 2h-8a1 1 0 0 1 0-2zm1 4h6v3h-6zm-3 5h10a1 1 0 0 1 1 1v2h-13v-1a2 2 0 0 1 2-2zm8.974 43h-11.948l.075-3h11.799zm1.026 4h-14a1 1 0 0 1 0-2h14a1 1 0 0 1 0 2zm-1.151-9h-11.7l.825-33h13.026v5h-6a4 4 0 0 0 -4 4v10a4 4 0 0 0 4 4h3.6zm7.151-8h-2v-2h2z" fill="url(#New_Gradient_Swatch_2)"/><path d="m39 31h2v2h-2z" fill="url(#New_Gradient_Swatch_2-6)"/><path d="m23 31h2v2h-2z" fill="url(#New_Gradient_Swatch_2-7)"/></svg>