<svg height="512" viewBox="0 0 64 64" width="512" xmlns="http://www.w3.org/2000/svg" xmlns:xlink="http://www.w3.org/1999/xlink"><linearGradient id="New_Gradient_Swatch_2" gradientUnits="userSpaceOnUse" x1="9" x2="9" y1="1.845" y2="58.816"><stop offset="0" stop-color="#fc5c7d"/><stop offset=".129" stop-color="#f35e85"/><stop offset=".343" stop-color="#d9659b"/><stop offset=".616" stop-color="#b070bf"/><stop offset=".934" stop-color="#777ff0"/><stop offset="1" stop-color="#6a82fb"/></linearGradient><linearGradient id="New_Gradient_Swatch_2-2" x1="32" x2="32" xlink:href="#New_Gradient_Swatch_2" y1="1.845" y2="58.816"/><linearGradient id="New_Gradient_Swatch_2-3" x1="26" x2="26" xlink:href="#New_Gradient_Swatch_2" y1="1.845" y2="58.816"/><linearGradient id="New_Gradient_Swatch_2-4" x1="37" x2="37" xlink:href="#New_Gradient_Swatch_2" y1="1.845" y2="58.816"/><linearGradient id="New_Gradient_Swatch_2-5" x1="52" x2="52" xlink:href="#New_Gradient_Swatch_2" y1="1.845" y2="58.816"/><linearGradient id="New_Gradient_Swatch_2-6" x1="49" x2="49" xlink:href="#New_Gradient_Swatch_2" y1="1.845" y2="58.816"/><linearGradient id="New_Gradient_Swatch_2-7" x1="34" x2="34" xlink:href="#New_Gradient_Swatch_2" y1="1.845" y2="58.816"/><linearGradient id="New_Gradient_Swatch_2-8" x1="28" x2="28" xlink:href="#New_Gradient_Swatch_2" y1="1.845" y2="58.816"/><linearGradient id="New_Gradient_Swatch_2-9" x1="18" x2="18" xlink:href="#New_Gradient_Swatch_2" y1="1.845" y2="58.816"/><linearGradient id="New_Gradient_Swatch_2-12" x1="17" x2="17" xlink:href="#New_Gradient_Swatch_2" y1="1.845" y2="58.816"/><linearGradient id="New_Gradient_Swatch_2-13" x1="14" x2="14" xlink:href="#New_Gradient_Swatch_2" y1="1.845" y2="58.816"/><linearGradient id="New_Gradient_Swatch_2-14" x1="47" x2="47" xlink:href="#New_Gradient_Swatch_2" y1="1.845" y2="58.816"/><linearGradient id="New_Gradient_Swatch_2-15" x1="50" x2="50" xlink:href="#New_Gradient_Swatch_2" y1="1.845" y2="58.816"/><linearGradient id="New_Gradient_Swatch_2-16" x1="46" x2="46" xlink:href="#New_Gradient_Swatch_2" y1="1.845" y2="58.816"/><path d="m9 56a1 1 0 0 1 0-2v-2a3 3 0 1 0 3 3h-2a1 1 0 0 1 -1 1z" fill="url(#New_Gradient_Swatch_2)"/><path d="m55 48h-1.111a6.993 6.993 0 0 0 -4.889-12h-34a6.993 6.993 0 0 0 -4.889 12h-1.111a7 7 0 0 0 0 14h46a7 7 0 0 0 0-14zm-1-5a5 5 0 1 1 -5-5 5.006 5.006 0 0 1 5 5zm-44 0a5.006 5.006 0 0 1 5-5h29.111a6.977 6.977 0 0 0 0 10h-29.111a5.006 5.006 0 0 1 -5-5zm-6 12a5 5 0 1 1 5 5 5.006 5.006 0 0 1 -5-5zm51 5h-41.111a6.977 6.977 0 0 0 0-10h41.111a5 5 0 0 1 0 10z" fill="url(#New_Gradient_Swatch_2-2)"/><path d="m19 52h14v2h-14z" fill="url(#New_Gradient_Swatch_2-3)"/><path d="m30 56h14v2h-14z" fill="url(#New_Gradient_Swatch_2-4)"/><path d="m48 53h8v2h-8z" fill="url(#New_Gradient_Swatch_2-5)"/><path d="m49 42a1 1 0 0 1 0 2v2a3 3 0 1 0 -3-3h2a1 1 0 0 1 1-1z" fill="url(#New_Gradient_Swatch_2-6)"/><path d="m29 44h10v2h-10z" fill="url(#New_Gradient_Swatch_2-7)"/><path d="m24 40h8v2h-8z" fill="url(#New_Gradient_Swatch_2-8)"/><path d="m14 43h8v2h-8z" fill="url(#New_Gradient_Swatch_2-9)"/><path d="m45 25.03c0-7.187-2.586-22.03-10.58-22.03-6.287 0-8.279 9.505-9.05 13.494-1.908.748-6.37 2.791-6.37 8.536a13.015 13.015 0 0 0 4.372 9.717l1.328-1.494a11.017 11.017 0 0 1 -3.7-8.223c0-4.729 3.792-6.176 5.417-6.8l.187-.072a1 1 0 0 0 .625-.744l.044-.231c.579-3.01 2.34-12.183 7.147-12.183 6.063 0 8.58 13.046 8.58 20.03a11.02 11.02 0 0 1 -3.667 8.193l1.334 1.49a13.022 13.022 0 0 0 4.333-9.683z" fill="url(#New_Gradient_Swatch_2-2)"/><path d="m34.614 11.979c-2.087-.192-3.63 2.378-4.6 7.846-.221 1.244-1.064 1.622-2.535 2.184s-3.479 1.328-3.479 3.991a8 8 0 0 0 16 0c0-6.408-2.212-13.742-5.386-14.021zm-2.614 20.021a6.006 6.006 0 0 1 -6-6c0-1.181.568-1.5 2.194-2.123 1.419-.541 3.362-1.282 3.79-3.7.9-5.091 2.078-6.2 2.441-6.2h.014c1.188.098 3.561 5.372 3.561 12.023a6.006 6.006 0 0 1 -6 6z" fill="url(#New_Gradient_Swatch_2-2)"/><path d="m16 31h2v2h-2z" fill="url(#New_Gradient_Swatch_2-12)"/><path d="m13 20h2v2h-2z" fill="url(#New_Gradient_Swatch_2-13)"/><path d="m46 32h2v2h-2z" fill="url(#New_Gradient_Swatch_2-14)"/><path d="m49 20h2v2h-2z" fill="url(#New_Gradient_Swatch_2-15)"/><path d="m45 4h2v2h-2z" fill="url(#New_Gradient_Swatch_2-16)"/><path d="m17 9h2v2h-2z" fill="url(#New_Gradient_Swatch_2-9)"/></svg>