<svg height="512" viewBox="0 0 64 64" width="512" xmlns="http://www.w3.org/2000/svg" xmlns:xlink="http://www.w3.org/1999/xlink"><linearGradient id="New_Gradient_Swatch_2" gradientUnits="userSpaceOnUse" x1="32" x2="32" y1="1.845" y2="58.816"><stop offset="0" stop-color="#fc5c7d"/><stop offset=".129" stop-color="#f35e85"/><stop offset=".343" stop-color="#d9659b"/><stop offset=".616" stop-color="#b070bf"/><stop offset=".934" stop-color="#777ff0"/><stop offset="1" stop-color="#6a82fb"/></linearGradient><linearGradient id="New_Gradient_Swatch_2-3" x1="53" x2="53" xlink:href="#New_Gradient_Swatch_2" y1="1.845" y2="58.816"/><linearGradient id="New_Gradient_Swatch_2-5" x1="34" x2="34" xlink:href="#New_Gradient_Swatch_2" y1="1.845" y2="58.816"/><linearGradient id="New_Gradient_Swatch_2-6" x1="52" x2="52" xlink:href="#New_Gradient_Swatch_2" y1="1.845" y2="58.816"/><path d="m32 45a9 9 0 1 0 -9-9 9.01 9.01 0 0 0 9 9zm0-16a7 7 0 1 1 -7 7 7.009 7.009 0 0 1 7-7z" fill="url(#New_Gradient_Swatch_2)"/><path d="m55.707 51.707 2-2a1 1 0 0 0 .293-.707v-28a1 1 0 0 0 -1-1h-1v-3a1 1 0 0 0 -1-1h-9a1 1 0 0 0 -1 1v3h-1.219l-1.243-4.97a3.994 3.994 0 0 0 -3.881-3.03h-13.314a3.994 3.994 0 0 0 -3.881 3.03l-.243.97h-12.219a1 1 0 0 0 -1 1v3h-1a1 1 0 0 0 -1 1v28a1 1 0 0 0 .293.707l2 2a1 1 0 0 0 .707.293h46a1 1 0 0 0 .707-.293zm-1.891-7.707a3 3 0 0 0 -1.816-1.816v-2.184h-2v2.184a3 3 0 0 0 -1.816 1.816h-5.959a12.919 12.919 0 0 0 0-16h13.775v16zm-1.816 1a1 1 0 1 1 -1-1 1 1 0 0 1 1 1zm-32.949-8h-1.051a1 1 0 0 1 0-2h1.051c-.026.331-.051.662-.051 1s.025.669.051 1zm.312-4h-1.363a3 3 0 0 0 0 6h1.363a12.944 12.944 0 0 0 2.412 5h-13.775v-16h13.775a12.944 12.944 0 0 0 -2.412 5zm1.637 3a11 11 0 1 1 11 11 11.013 11.013 0 0 1 -11-11zm26-18h7v2h-7zm-26.281 0-.5 2h-4.219v-2zm-10.719 0h4v2h-4zm11 4a1 1 0 0 0 .97-.758l1.43-5.727a2 2 0 0 1 1.943-1.515h13.314a2 2 0 0 1 1.943 1.515l1.431 5.727a1 1 0 0 0 .969.758h13v4h-15.7a12.968 12.968 0 0 0 -16.59 0h-15.71v-4zm-11.586 28-1.414-1.414v-2.586h15.7a12.968 12.968 0 0 0 16.6 0h7.889a2.982 2.982 0 0 0 5.632 0h2.179v2.586l-1.414 1.414z" fill="url(#New_Gradient_Swatch_2)"/><path d="m52 30h2v2h-2z" fill="url(#New_Gradient_Swatch_2-3)"/><path d="m27 18h10v2h2v-3a1 1 0 0 0 -1-1h-12a1 1 0 0 0 -1 1v3h2z" fill="url(#New_Gradient_Swatch_2)"/><path d="m19 54h30v2h-30z" fill="url(#New_Gradient_Swatch_2-5)"/><path d="m51 54h2v2h-2z" fill="url(#New_Gradient_Swatch_2-6)"/></svg>