<svg height="512" viewBox="0 0 64 64" width="512" xmlns="http://www.w3.org/2000/svg" xmlns:xlink="http://www.w3.org/1999/xlink"><linearGradient id="New_Gradient_Swatch_2" gradientUnits="userSpaceOnUse" x1="32" x2="32" y1="4.21" y2="52.05"><stop offset="0" stop-color="#fc5c7d"/><stop offset=".129" stop-color="#f35e85"/><stop offset=".343" stop-color="#d9659b"/><stop offset=".616" stop-color="#b070bf"/><stop offset=".934" stop-color="#777ff0"/><stop offset="1" stop-color="#6a82fb"/></linearGradient><path d="m53 32a3 3 0 0 0 3-3v-1.184a2.982 2.982 0 0 0 0-5.632v-13.184a3 3 0 0 0 -3-3h-1v-1a3 3 0 0 0 -6 0v1h-28v-1a3 3 0 0 0 -6 0v1h-1a3 3 0 0 0 -3 3v13.184a2.982 2.982 0 0 0 0 5.632v1.184a3 3 0 0 0 3 3h1v2.264c-.927-.188-1.711-.369-2.348-.53a2.933 2.933 0 0 0 -1.523 5.666c.831.234 2.127.559 3.871.9v15.7h-1a3 3 0 0 0 0 6h7a2.992 2.992 0 0 0 1.762-5.416l12.238-6.934 12.238 6.934a2.992 2.992 0 0 0 1.762 5.416h7a3 3 0 0 0 0-6h-1v-15.7c1.744-.342 3.04-.667 3.871-.9a2.933 2.933 0 0 0 -1.523-5.665c-.637.161-1.421.342-2.348.53v-2.265zm0-2h-1v-2h2v1a1 1 0 0 1 -1 1zm2-4h-9a1 1 0 0 1 0-2h9a1 1 0 0 1 0 2zm-23 10a116.656 116.656 0 0 1 -14-.784v-3.216h28v3.216a116.656 116.656 0 0 1 -14 .784zm16-31a1 1 0 0 1 2 0v1h-2zm-34 0a1 1 0 0 1 2 0v1h-2zm-3 3h42a1 1 0 0 1 1 1v13h-8a3 3 0 0 0 0 6v2h-28v-2a3 3 0 0 0 0-6h-8v-13a1 1 0 0 1 1-1zm-2 16h9a1 1 0 0 1 0 2h-9a1 1 0 0 1 0-2zm2 6a1 1 0 0 1 -1-1v-1h2v2zm3-2h2v6.951c-.709-.1-1.382-.208-2-.314zm0 12.66c.627.1 1.288.208 2 .308v15.032h-2zm4 19.34h-7a1 1 0 0 1 0-2h7a1 1 0 0 1 0 2zm0-4.716v-13.568l11.971 6.784zm3.865-13.677c2.941.237 6.309.393 10.135.393s7.194-.156 10.135-.393l-10.135 5.743zm24.135.109v13.568l-11.971-6.784zm8 17.284a1 1 0 0 1 -1 1h-7a1 1 0 0 1 0-2h7a1 1 0 0 1 1 1zm-4-3h-2v-15.032c.712-.1 1.373-.2 2-.308zm4.836-20.326a.933.933 0 0 1 .494 1.8 62.627 62.627 0 0 1 -8.812 1.675l-.011-.019-.047.026a115.376 115.376 0 0 1 -14.46.844 115.376 115.376 0 0 1 -14.46-.844l-.047-.026-.011.019a62.627 62.627 0 0 1 -8.812-1.675.933.933 0 0 1 .494-1.8c3.447.869 10.998 2.326 22.836 2.326s19.389-1.457 22.836-2.326zm-6.836-.723v-6.951h2v6.637c-.618.106-1.291.211-2 .314z" fill="url(#New_Gradient_Swatch_2)"/></svg>