<svg height="512" viewBox="0 0 64 64" width="512" xmlns="http://www.w3.org/2000/svg" xmlns:xlink="http://www.w3.org/1999/xlink"><linearGradient id="New_Gradient_Swatch_2" gradientUnits="userSpaceOnUse" x1="32" x2="32" y1="3.839" y2="57.224"><stop offset="0" stop-color="#fc5c7d"/><stop offset=".129" stop-color="#f35e85"/><stop offset=".343" stop-color="#d9659b"/><stop offset=".616" stop-color="#b070bf"/><stop offset=".934" stop-color="#777ff0"/><stop offset="1" stop-color="#6a82fb"/></linearGradient><linearGradient id="New_Gradient_Swatch_2-2" x1="22" x2="22" xlink:href="#New_Gradient_Swatch_2" y1="3.839" y2="57.224"/><linearGradient id="New_Gradient_Swatch_2-3" x1="34" x2="34" xlink:href="#New_Gradient_Swatch_2" y1="3.839" y2="57.224"/><path d="m12 62h40a3 3 0 0 0 0-6v-9a11.013 11.013 0 0 0 -11-11h-3v-3a1 1 0 0 0 -1-1h-2v-2h6v2h2v-6h-2v2h-6v-4h9a1 1 0 0 0 .707-.293l8-8a1 1 0 0 0 .293-.707v-10a1 1 0 0 0 -1-1h-11a1 1 0 0 0 -.707.293l-3 3 1.414 1.414 2.707-2.707h9.586v3h-9v2h9v3.586l-7.414 7.414h-5.586v-2h5a1 1 0 0 0 1-1v-4a1 1 0 0 0 -1-1h-10v-2.142a4 4 0 0 0 3-3.858c0-3.495-3.3-5.738-3.445-5.832a1 1 0 0 0 -1.11 0c-.14.094-3.445 2.337-3.445 5.832a4 4 0 0 0 3 3.858v2.142h-10a1 1 0 0 0 -1 1v4a1 1 0 0 0 1 1h5v2h-5.586l-7.414-7.414v-3.586h9v-2h-9v-3h9.586l2.707 2.707 1.414-1.414-3-3a1 1 0 0 0 -.707-.293h-11a1 1 0 0 0 -1 1v10a1 1 0 0 0 .293.707l8 8a1 1 0 0 0 .707.293h9v8h-2a1 1 0 0 0 -1 1v3h-3a11.013 11.013 0 0 0 -11 11v9a3 3 0 0 0 0 6zm18-54a5.35 5.35 0 0 1 2-3.724 5.352 5.352 0 0 1 2 3.724 2 2 0 0 1 -4 0zm-8 8h20v2h-20zm6 4h8v2h-8zm3 4h2v8h-2zm-3 10h8v2h-8zm-5 4h18a9.01 9.01 0 0 1 8.941 8h-35.882a9.01 9.01 0 0 1 8.941-8zm-9 10h36v8h-36zm-2 10h40a1 1 0 0 1 0 2h-40a1 1 0 0 1 0-2z" fill="url(#New_Gradient_Swatch_2)"/><path d="m21 50h2v2h-2z" fill="url(#New_Gradient_Swatch_2-2)"/><path d="m25 50h18v2h-18z" fill="url(#New_Gradient_Swatch_2-3)"/></svg>