<svg height="512" viewBox="0 0 64 64" width="512" xmlns="http://www.w3.org/2000/svg" xmlns:xlink="http://www.w3.org/1999/xlink"><linearGradient id="New_Gradient_Swatch_2" gradientUnits="userSpaceOnUse" x1="25" x2="25" y1="3.301" y2="58.124"><stop offset="0" stop-color="#fc5c7d"/><stop offset=".129" stop-color="#f35e85"/><stop offset=".343" stop-color="#d9659b"/><stop offset=".616" stop-color="#b070bf"/><stop offset=".934" stop-color="#777ff0"/><stop offset="1" stop-color="#6a82fb"/></linearGradient><linearGradient id="New_Gradient_Swatch_2-2" x1="40" x2="40" xlink:href="#New_Gradient_Swatch_2" y1="3.301" y2="58.124"/><linearGradient id="New_Gradient_Swatch_2-3" x1="61" x2="61" xlink:href="#New_Gradient_Swatch_2" y1="3.301" y2="58.124"/><linearGradient id="New_Gradient_Swatch_2-6" x1="53" x2="53" xlink:href="#New_Gradient_Swatch_2" y1="3.301" y2="58.124"/><path d="m6 51.816v6.184a4 4 0 0 0 4 4h30a4 4 0 0 0 4-4v-6.184a2.993 2.993 0 0 0 -1-5.816h-10.762a4.5 4.5 0 0 0 -3.738-7h-13.5v-3a3 3 0 0 0 -6 0v3h-2v2h21.5a2.5 2.5 0 0 1 0 5h-21.5a2.993 2.993 0 0 0 -1 5.816zm5-12.816v-3a1 1 0 0 1 2 0v3zm29 21h-30a2 2 0 0 1 -2-2v-6h34v6a2 2 0 0 1 -2 2zm-33-12h36a1 1 0 0 1 0 2h-36a1 1 0 0 1 0-2z" fill="url(#New_Gradient_Swatch_2)"/><path d="m60 19a3 3 0 0 0 -3-3h-10.762a4.5 4.5 0 0 0 -3.738-7h-13.5v-3a3 3 0 0 0 -6 0v3h-2v2h21.5a2.5 2.5 0 0 1 0 5h-19.5a2.993 2.993 0 0 0 -1 5.816v15.184h2v-8h32v20h-8v2h8v5h-10v2h11a1 1 0 0 1 0 2h-12v2h12a2.993 2.993 0 0 0 1-5.816v-34.368a3 3 0 0 0 2-2.816zm-35-10v-3a1 1 0 0 1 2 0v3zm-2 9h34a1 1 0 0 1 0 2h-34a1 1 0 0 1 0-2zm1 9v-5h32v5z" fill="url(#New_Gradient_Swatch_2-2)"/><path d="m60 25h2v23h-2z" fill="url(#New_Gradient_Swatch_2-3)"/><path d="m60 50h2v2h-2z" fill="url(#New_Gradient_Swatch_2-3)"/><path d="m46 38a6 6 0 1 0 -6 6 6.006 6.006 0 0 0 6-6zm-10 0a4 4 0 1 1 4 4 4 4 0 0 1 -4-4z" fill="url(#New_Gradient_Swatch_2-2)"/><path d="m52 45h2v2h-2z" fill="url(#New_Gradient_Swatch_2-6)"/></svg>