<svg height="512" viewBox="0 0 64 64" width="512" xmlns="http://www.w3.org/2000/svg" xmlns:xlink="http://www.w3.org/1999/xlink"><linearGradient id="New_Gradient_Swatch_2" gradientUnits="userSpaceOnUse" x1="32" x2="32" y1="4.21" y2="52.05"><stop offset="0" stop-color="#fc5c7d"/><stop offset=".129" stop-color="#f35e85"/><stop offset=".343" stop-color="#d9659b"/><stop offset=".616" stop-color="#b070bf"/><stop offset=".934" stop-color="#777ff0"/><stop offset="1" stop-color="#6a82fb"/></linearGradient><linearGradient id="New_Gradient_Swatch_2-2" gradientTransform="matrix(.707 .707 -.707 .707 30.565 -6.82)" x1="23.515" x2="23.515" xlink:href="#New_Gradient_Swatch_2" y1="4.21" y2="52.05"/><linearGradient id="New_Gradient_Swatch_2-3" gradientTransform="matrix(.707 .707 -.707 .707 23.536 -23.79)" x1="40.485" x2="40.485" xlink:href="#New_Gradient_Swatch_2" y1="4.21" y2="52.05"/><linearGradient id="New_Gradient_Swatch_2-4" gradientTransform="matrix(.707 .707 -.707 .707 18.565 -11.79)" x1="23.515" x2="23.515" xlink:href="#New_Gradient_Swatch_2" y1="4.21" y2="52.05"/><linearGradient id="New_Gradient_Swatch_2-5" gradientTransform="matrix(.707 .707 -.707 .707 35.536 -18.82)" x1="40.485" x2="40.485" xlink:href="#New_Gradient_Swatch_2" y1="4.21" y2="52.05"/><linearGradient id="New_Gradient_Swatch_2-6" x1="20" x2="20" xlink:href="#New_Gradient_Swatch_2" y1="4.21" y2="52.05"/><linearGradient id="New_Gradient_Swatch_2-7" x1="44" x2="44" xlink:href="#New_Gradient_Swatch_2" y1="4.21" y2="52.05"/><linearGradient id="New_Gradient_Swatch_2-14" x1="4" x2="4" xlink:href="#New_Gradient_Swatch_2" y1="4.21" y2="52.05"/><linearGradient id="New_Gradient_Swatch_2-15" x1="60" x2="60" xlink:href="#New_Gradient_Swatch_2" y1="4.21" y2="52.05"/><path d="m32 42a17 17 0 1 0 -17-17 17.019 17.019 0 0 0 17 17zm0-32a15 15 0 1 1 -15 15 15.017 15.017 0 0 1 15-15z" fill="url(#New_Gradient_Swatch_2)"/><path d="m22.515 32.485h2v2h-2z" fill="url(#New_Gradient_Swatch_2-2)" transform="matrix(.707 -.707 .707 .707 -16.79 26.435)"/><path d="m39.485 15.515h2v2h-2z" fill="url(#New_Gradient_Swatch_2-3)" transform="matrix(.707 -.707 .707 .707 .18 33.464)"/><path d="m22.515 15.515h2v2h-2z" fill="url(#New_Gradient_Swatch_2-4)" transform="matrix(.707 -.707 .707 .707 -4.79 21.464)"/><path d="m39.485 32.485h2v2h-2z" fill="url(#New_Gradient_Swatch_2-5)" transform="matrix(.707 -.707 .707 .707 -11.82 38.435)"/><path d="m19 24h2v2h-2z" fill="url(#New_Gradient_Swatch_2-6)"/><path d="m43 24h2v2h-2z" fill="url(#New_Gradient_Swatch_2-7)"/><g fill="url(#New_Gradient_Swatch_2)"><path d="m31 12h2v2h-2z"/><path d="m31 36h2v2h-2z"/><path d="m27.856 27.73-1.563 1.563 1.414 1.414 1.563-1.563 8.414 2.8a.987.987 0 0 0 .316.056 1 1 0 0 0 .949-1.316l-2.8-8.414 1.563-1.563-1.414-1.414-1.568 1.563-8.414-2.8a1 1 0 0 0 -1.265 1.264zm8.563 1.689-5.568-1.856 3.712-3.712zm-3.27-6.982-3.712 3.712-1.856-5.568z"/><path d="m7 6v48a.993.993 0 0 0 .132.5c.175.3 4.522 7.5 24.868 7.5s24.693-7.2 24.868-7.5a.993.993 0 0 0 .132-.5v-48a4 4 0 0 0 -4-4h-42a4 4 0 0 0 -4 4zm48 0v47.683c-.846 1.071-5.869 6.317-23 6.317-17.162 0-22.172-5.265-23-6.315v-47.685a2 2 0 0 1 2-2h4v2h2v-2h2v3h2v-3h2v2h2v-2h2v3h2v-3h2v2h2v-2h2v3h2v-3h2v2h2v-2h2v3h2v-3h2v2h2v-2h4a2 2 0 0 1 2 2z"/><path d="m49 44h-2v4h-2v-2h-2v2h-2v-4h-2v4h-2v-2h-2v2h-2v-4h-2v4h-2v-2h-2v2h-2v-4h-2v4h-2v-2h-2v2h-2v-4h-2v4h-4v2h42v-2h-4z"/><path d="m32 52a3 3 0 1 0 3 3 3 3 0 0 0 -3-3zm0 4a1 1 0 1 1 1-1 1 1 0 0 1 -1 1z"/></g><path d="m3 7h2v24h-2z" fill="url(#New_Gradient_Swatch_2-14)"/><path d="m59 26h2v22h-2z" fill="url(#New_Gradient_Swatch_2-15)"/><path d="m59 50h2v2h-2z" fill="url(#New_Gradient_Swatch_2-15)"/></svg>