<svg height="512" viewBox="0 0 64 64" width="512" xmlns="http://www.w3.org/2000/svg" xmlns:xlink="http://www.w3.org/1999/xlink"><linearGradient id="New_Gradient_Swatch_2" gradientUnits="userSpaceOnUse" x1="32" x2="32" y1="1.845" y2="58.816"><stop offset="0" stop-color="#fc5c7d"/><stop offset=".129" stop-color="#f35e85"/><stop offset=".343" stop-color="#d9659b"/><stop offset=".616" stop-color="#b070bf"/><stop offset=".934" stop-color="#777ff0"/><stop offset="1" stop-color="#6a82fb"/></linearGradient><linearGradient id="New_Gradient_Swatch_2-2" x1="3" x2="3" xlink:href="#New_Gradient_Swatch_2" y1="1.845" y2="58.816"/><path d="m57 18h1a3 3 0 0 0 0-6h-1v-5a1 1 0 0 0 -1-1h-4a1 1 0 0 0 -1 1v5h-3v-3a1 1 0 0 0 -1-1h-4a1 1 0 0 0 -1 1v3h-25v-5a1 1 0 0 0 -1-1h-4a1 1 0 0 0 -1 1v5h-3v-1a1 1 0 0 0 -1-1h-4a1 1 0 0 0 -1 1v5a10.013 10.013 0 0 0 9 9.95v34.05h-5v2h56v-2h-5zm-4-10h2v4h-2zm5 6a1 1 0 0 1 0 2h-10v-2zm-7 4v1.873a4.009 4.009 0 0 1 -2.456-1.873zm-7-8h2v6a6.006 6.006 0 0 0 6 6 1 1 0 0 0 1-1v-3h2v42h-2v-35a1 1 0 0 0 -1-1 8.009 8.009 0 0 1 -8-8zm7 15.95v34.05h-4.556a3.959 3.959 0 0 0 .556-2 4 4 0 0 0 -4-4h-.556a3.959 3.959 0 0 0 .556-2 4 4 0 0 0 -4-4h-10a4 4 0 0 0 -4 4 3.959 3.959 0 0 0 .556 2h-.556a4 4 0 0 0 -4 4 3.959 3.959 0 0 0 .556 2h-4.556v-42h14.942l-9.47 12.053a2.988 2.988 0 0 0 -.472 5.763v5.184a5.006 5.006 0 0 0 5 5h14a5.006 5.006 0 0 0 5-5v-5.184a2.988 2.988 0 0 0 -.472-5.763l-9.47-12.053h6.148a10.017 10.017 0 0 0 8.794 7.95zm-24 26.05a2 2 0 1 1 2 2 2 2 0 0 1 -2-2zm5.444-2h6.556a2 2 0 0 1 0 4h-6.556a3.875 3.875 0 0 0 0-4zm-8.444-14h20v5a3 3 0 0 1 -3 3h-14a3 3 0 0 1 -3-3zm21-2h-22a1 1 0 0 1 0-2h22a1 1 0 0 1 0 2zm-13-4a2 2 0 0 1 4 0zm6 0a4 4 0 0 0 -8 0h-4.943l8.943-11.382 8.943 11.382zm-5-14v-2h2v2zm9 0h-5v-2h5zm-29-8h2v4h-2zm18 6v2h-23v-2zm-20 4v1.873a4.009 4.009 0 0 1 -2.456-1.873zm1 6a8.009 8.009 0 0 1 -8-8v-4h2v4a6.006 6.006 0 0 0 6 6 1 1 0 0 0 1-1v-3h2v42h-2v-35a1 1 0 0 0 -1-1zm11 34a2 2 0 0 1 2-2h14.556a3.875 3.875 0 0 0 0 4h-14.556a2 2 0 0 1 -2-2zm18 0a2 2 0 1 1 2 2 2 2 0 0 1 -2-2z" fill="url(#New_Gradient_Swatch_2)"/><path d="m2 60h2v2h-2z" fill="url(#New_Gradient_Swatch_2-2)"/></svg>