<svg height="512" viewBox="0 0 64 64" width="512" xmlns="http://www.w3.org/2000/svg" xmlns:xlink="http://www.w3.org/1999/xlink"><linearGradient id="New_Gradient_Swatch_2" gradientUnits="userSpaceOnUse" x1="26.856" x2="26.856" y1="4.21" y2="52.05"><stop offset="0" stop-color="#fc5c7d"/><stop offset=".129" stop-color="#f35e85"/><stop offset=".343" stop-color="#d9659b"/><stop offset=".616" stop-color="#b070bf"/><stop offset=".934" stop-color="#777ff0"/><stop offset="1" stop-color="#6a82fb"/></linearGradient><linearGradient id="New_Gradient_Swatch_2-2" x1="40.5" x2="40.5" xlink:href="#New_Gradient_Swatch_2" y1="4.21" y2="52.05"/><path d="m5 48.39a8.044 8.044 0 0 0 6.461 7.871l.5.1a4.99 4.99 0 0 0 4.957 5.639h18.556a5 5 0 0 0 4.926-5.87l-.218-1.237 1.793-.952a6.5 6.5 0 0 0 2.68-8.794 4.487 4.487 0 0 1 1.862-6.086l2.2-1.18-.945-1.762-2.198 1.181a6.487 6.487 0 0 0 -2.686 8.8 4.5 4.5 0 0 1 -1.857 6.086l-1.219.647-2.648-14.993a2.991 2.991 0 0 0 -.921-5.84h-6a4 4 0 0 0 -8 0h-6a2.99 2.99 0 0 0 -1.359 5.659l-.438 2.8a8.03 8.03 0 0 0 -9.378 6.906 7.664 7.664 0 0 0 -.068 1.025zm32.772 10.538a2.994 2.994 0 0 1 -2.298 1.072h-18.556a3 3 0 0 1 -2.964-3.465l2.901-18.535h18.306l3.267 18.479a2.993 2.993 0 0 1 -.656 2.449zm-11.529-28.928a2 2 0 0 1 2 2h-4a2 2 0 0 1 2-2zm-10 4h20a1 1 0 0 1 0 2h-20a1 1 0 1 1 0-2zm-9.191 13.623a6.037 6.037 0 0 1 7.085-5.189l-1.871 11.949-.412-.083a6.041 6.041 0 0 1 -4.854-5.91 5.758 5.758 0 0 1 .052-.767z" fill="url(#New_Gradient_Swatch_2)"/><path d="m59 14a3 3 0 0 0 -2-2.816v-3.184a1 1 0 0 0 -1-1h-1v-2h-2v2h-1a1 1 0 0 0 -1 1v3h-3.882l1.782-3.553a1 1 0 0 0 -.9-1.447h-22a1 1 0 0 0 -.895 1.447l1.777 3.553h-1.882a3 3 0 0 0 0 6h4.882l6.218 12.447a1 1 0 0 0 1.79 0l6.228-12.447h6.882v36h-1a1 1 0 0 0 -.707.293l-2.707 2.707h-4.586v2h5a1 1 0 0 0 .707-.293l2.707-2.707h6.586v5h-16v2h17a1 1 0 0 0 1-1v-7a1 1 0 0 0 -1-1h-1v-36.184a3 3 0 0 0 2-2.816zm-6-5h2v2h-2zm-25.382-1h18.764l-1.5 3h-15.764zm-3.618 6a1 1 0 0 1 1-1h31a1 1 0 0 1 0 2h-31a1 1 0 0 1 -1-1zm13 12.764-4.882-9.764h9.764zm16 26.236v-36h2v36z" fill="url(#New_Gradient_Swatch_2-2)"/></svg>