<svg height="512" viewBox="0 0 64 64" width="512" xmlns="http://www.w3.org/2000/svg" xmlns:xlink="http://www.w3.org/1999/xlink"><linearGradient id="New_Gradient_Swatch_2" gradientUnits="userSpaceOnUse" x1="29.767" x2="29.767" y1="3.839" y2="57.224"><stop offset="0" stop-color="#fc5c7d"/><stop offset=".129" stop-color="#f35e85"/><stop offset=".343" stop-color="#d9659b"/><stop offset=".616" stop-color="#b070bf"/><stop offset=".934" stop-color="#777ff0"/><stop offset="1" stop-color="#6a82fb"/></linearGradient><linearGradient id="New_Gradient_Swatch_2-2" x1="8" x2="8" xlink:href="#New_Gradient_Swatch_2" y1="3.839" y2="57.224"/><linearGradient id="New_Gradient_Swatch_2-3" x1="18.579" x2="18.579" xlink:href="#New_Gradient_Swatch_2" y1="3.839" y2="57.224"/><linearGradient id="New_Gradient_Swatch_2-4" x1="57.278" x2="57.278" xlink:href="#New_Gradient_Swatch_2" y1="3.839" y2="57.224"/><linearGradient id="New_Gradient_Swatch_2-5" x1="59.296" x2="59.296" xlink:href="#New_Gradient_Swatch_2" y1="3.839" y2="57.224"/><path d="m18.12 56.514a1 1 0 0 0 .378 1.341l5.19 3.01a1 1 0 0 0 1.352-.338l3.45-5.555c.327.016.654.028.982.028h5.528a3 3 0 0 0 3-3 2.967 2.967 0 0 0 -.4-1.471 2.972 2.972 0 0 0 1.181-3.645 2.95 2.95 0 0 0 2.035-3.884h.184a3 3 0 0 0 0-6h-1.34l2.6-4.172 3.722-.988a1.006 1.006 0 0 0 .608-.464l1-1.73a3 3 0 0 0 4.41-3.364 3.057 3.057 0 0 0 -.233-.6 10.552 10.552 0 0 0 5.3-12.514l-2.888-9.451a1 1 0 0 0 -1.179-.684l-9.64 2.181a10.553 10.553 0 0 0 -8.235 10.815 3 3 0 0 0 -1.372 5.584l-1 1.73a1.007 1.007 0 0 0 -.1.759l.987 3.718-3.3 6.117a5.322 5.322 0 0 0 -7.448 1.439l-1.822 2.733a2 2 0 0 1 -1.67.891h-17.4v2h17.4a4 4 0 0 0 3.328-1.781l1.822-2.734a3.336 3.336 0 0 1 5.759.359l.078.156h-2.387v2h13a1 1 0 0 1 0 2h-8v2h5a1 1 0 0 1 0 2h-6v2h4a1 1 0 0 1 0 2h-5v2h4a1 1 0 0 1 0 2h-5.528a18.03 18.03 0 0 1 -8.025-1.9 1 1 0 0 0 -.447-.1h-19v2h18.022zm25.68-49.349 8.735-1.976 2.617 8.566a8.56 8.56 0 0 1 -4.972 10.457l-.515-.3c1.445-3.654-.314-8.276-2.467-9.526a7.121 7.121 0 0 0 -5.037-.209 8.5 8.5 0 0 0 -4.461 2.792l-.515-.3a8.562 8.562 0 0 1 6.615-9.504zm4.106 15.729-8.447-4.9a6.859 6.859 0 0 1 3.226-1.883 5.353 5.353 0 0 1 3.507.01c1.096.631 2.626 4 1.716 6.773zm-13.506-4.377a1 1 0 0 1 1.367-.363l13.833 8.033a1 1 0 0 1 -1 1.73l-13.843-8.033a1 1 0 0 1 -.362-1.367zm2.8 5.093 8.667 5.032-.8 1.372-3.3.875-6.2-3.594-.876-3.306.795-1.371zm-5.1 12.339a5.4 5.4 0 0 0 -.3-.511l3.3-6.106 5.136 2.976-2.931 4.692h-4.687zm-8.24 22.7-3.511-2.036 1.651-3.071a20.1 20.1 0 0 0 4.279 1.2z" fill="url(#New_Gradient_Swatch_2)"/><path d="m7 35h2v2h-2z" fill="url(#New_Gradient_Swatch_2-2)"/><path d="m19.691 36.555 1.526-2.288a7.346 7.346 0 0 1 4.94-3.175l-.314-1.975a9.354 9.354 0 0 0 -6.29 4.04l-1.229 1.843h-7.324v2h7.859a1 1 0 0 0 .832-.445z" fill="url(#New_Gradient_Swatch_2-3)"/><path d="m57.188 23.6a12.655 12.655 0 0 1 -1.444 1.68l1.4 1.432a14.516 14.516 0 0 0 1.673-1.946z" fill="url(#New_Gradient_Swatch_2-4)"/><path d="m58.369 21.579 1.815.842a14.583 14.583 0 0 0 .708-10.421l-1.923-6.292-1.912.584 1.922 6.3a12.571 12.571 0 0 1 -.61 8.987z" fill="url(#New_Gradient_Swatch_2-5)"/></svg>