<svg height="512" viewBox="0 0 64 64" width="512" xmlns="http://www.w3.org/2000/svg" xmlns:xlink="http://www.w3.org/1999/xlink"><linearGradient id="New_Gradient_Swatch_2" gradientUnits="userSpaceOnUse" x1="32" x2="32" y1="2.099" y2="58.719"><stop offset="0" stop-color="#fc5c7d"/><stop offset=".129" stop-color="#f35e85"/><stop offset=".343" stop-color="#d9659b"/><stop offset=".616" stop-color="#b070bf"/><stop offset=".934" stop-color="#777ff0"/><stop offset="1" stop-color="#6a82fb"/></linearGradient><linearGradient id="New_Gradient_Swatch_2-3" x1="20" x2="20" xlink:href="#New_Gradient_Swatch_2" y1="2.099" y2="58.719"/><linearGradient id="New_Gradient_Swatch_2-4" x1="44" x2="44" xlink:href="#New_Gradient_Swatch_2" y1="2.099" y2="58.719"/><linearGradient id="New_Gradient_Swatch_2-5" x1="8" x2="8" xlink:href="#New_Gradient_Swatch_2" y1="2.099" y2="58.719"/><linearGradient id="New_Gradient_Swatch_2-6" x1="56" x2="56" xlink:href="#New_Gradient_Swatch_2" y1="2.099" y2="58.719"/><path d="m47 13v-5h-.009a.991.991 0 0 0 -.284-.707l-5-5a1 1 0 0 0 -.707-.293h-18a1 1 0 0 0 -.707.293l-5 5a.991.991 0 0 0 -.284.707h-.009v5a6.006 6.006 0 0 0 -6 6v36a6.006 6.006 0 0 0 6 6h10.278a1.993 1.993 0 0 0 1.722 1h6a1.993 1.993 0 0 0 1.722-1h10.278a6.006 6.006 0 0 0 6-6v-36a6.006 6.006 0 0 0 -6-6zm-5 0v-4h3v4zm-5.278 0a1.993 1.993 0 0 0 -1.722-1h-6a1.993 1.993 0 0 0 -1.722 1h-3.278v-4h16v4zm-.722 23h-9v-10h10v10zm-3-12v-7h-2v7h-2v-10h6v10zm-9.586-20h17.172l3 3h-23.172zm-4.414 5h3v4h-3zm-6 46v-36a4 4 0 0 1 4-4h10v9h-1a1 1 0 0 0 -1 1v12a1 1 0 0 0 1 1h1v21h-10a4 4 0 0 1 -4-4zm16 5v-22h2v19h2v-19h2v22zm22-5a4 4 0 0 1 -4 4h-10v-21h1a1 1 0 0 0 1-1v-12a1 1 0 0 0 -1-1h-1v-9h10a4 4 0 0 1 4 4z" fill="url(#New_Gradient_Swatch_2)"/><path d="m33 28h-2v2h-2v2h2v2h2v-2h2v-2h-2z" fill="url(#New_Gradient_Swatch_2)"/><path d="m17 19h8v-2h-8a2 2 0 0 0 -2 2v36a2 2 0 0 0 2 2h8v-2h-8z" fill="url(#New_Gradient_Swatch_2-3)"/><path d="m47 17h-8v2h8v36h-8v2h8a2 2 0 0 0 2-2v-36a2 2 0 0 0 -2-2z" fill="url(#New_Gradient_Swatch_2-4)"/><path d="m7 19h2v22h-2z" fill="url(#New_Gradient_Swatch_2-5)"/><g fill="url(#New_Gradient_Swatch_2-6)"><path d="m55 53h2v2h-2z"/><path d="m55 32h2v19h-2z"/></g></svg>