<svg height="512" viewBox="0 0 64 64" width="512" xmlns="http://www.w3.org/2000/svg" xmlns:xlink="http://www.w3.org/1999/xlink"><linearGradient id="New_Gradient_Swatch_2" gradientUnits="userSpaceOnUse" x1="23" x2="23" y1="3.839" y2="57.224"><stop offset="0" stop-color="#fc5c7d"/><stop offset=".129" stop-color="#f35e85"/><stop offset=".343" stop-color="#d9659b"/><stop offset=".616" stop-color="#b070bf"/><stop offset=".934" stop-color="#777ff0"/><stop offset="1" stop-color="#6a82fb"/></linearGradient><linearGradient id="New_Gradient_Swatch_2-2" x1="17.551" x2="17.551" xlink:href="#New_Gradient_Swatch_2" y1="3.839" y2="57.224"/><linearGradient id="New_Gradient_Swatch_2-3" x1="30" x2="30" xlink:href="#New_Gradient_Swatch_2" y1="3.839" y2="57.224"/><linearGradient id="New_Gradient_Swatch_2-5" x1="38" x2="38" xlink:href="#New_Gradient_Swatch_2" y1="3.839" y2="57.224"/><linearGradient id="New_Gradient_Swatch_2-6" x1="42" x2="42" xlink:href="#New_Gradient_Swatch_2" y1="3.839" y2="57.224"/><linearGradient id="New_Gradient_Swatch_2-7" x1="35.418" x2="35.418" xlink:href="#New_Gradient_Swatch_2" y1="3.839" y2="57.224"/><path d="m22 24h2v2h-2z" fill="url(#New_Gradient_Swatch_2)"/><path d="m27 45v-2h-3.632a15.111 15.111 0 0 1 -13.468-8.4l-1.8.88a17.12 17.12 0 0 0 15.268 9.52z" fill="url(#New_Gradient_Swatch_2-2)"/><path d="m29 43h2v2h-2z" fill="url(#New_Gradient_Swatch_2-3)"/><path d="m8.772 25.988 2.4 6.506a13.047 13.047 0 0 0 12.196 8.506h16.155l-1.2 3h-1.323a6.006 6.006 0 0 0 -6 6v1a1 1 0 0 0 1 1h6v6a1 1 0 0 0 1 1h1a6.006 6.006 0 0 0 6-6v-1.042a12.016 12.016 0 0 0 11-11.958 18.87 18.87 0 0 0 -16.79-18.771l-28.52-3.188a3.686 3.686 0 0 0 -4.035 4.913l.331.9a3.991 3.991 0 0 1 1.014-7.854h42.5a3.5 3.5 0 0 0 0-7h-35a1.5 1.5 0 0 1 0-3h18.5v-2h-18.5a3.5 3.5 0 0 0 0 7h35a1.5 1.5 0 0 1 0 3h-42.5a6 6 0 0 0 -.228 11.988zm36.228 24.012a1 1 0 0 0 -1 1v2a4 4 0 0 1 -4 4v-6a1 1 0 0 0 -1-1h-6a4 4 0 0 1 4-4h2a1 1 0 0 0 .929-.628l1.748-4.372h13.272a10.013 10.013 0 0 1 -9.949 9zm9.971-11h-23.634a13.934 13.934 0 0 1 -6.276-1.507 15.791 15.791 0 0 0 3.939-10.493 17.852 17.852 0 0 0 -.887-5.111l11.875 1.327a16.872 16.872 0 0 1 14.983 15.784zm-29.055-17.357a16.362 16.362 0 0 1 1.084 5.357 13.808 13.808 0 0 1 -3.7 9.441 13.981 13.981 0 0 1 -5.05-6.457l-3.65-9.607zm-15.995-1.15a1.719 1.719 0 0 1 2.8.591l3.664 9.616a16.046 16.046 0 0 0 7.242 8.3h-.259a11.04 11.04 0 0 1 -10.322-7.2l-2.138-5.8h1.092v-2h-1.829l-.639-1.735a1.688 1.688 0 0 1 .389-1.772z" fill="url(#New_Gradient_Swatch_2-3)"/><path d="m37 4h2v2h-2z" fill="url(#New_Gradient_Swatch_2-5)"/><path d="m41 4h2v2h-2z" fill="url(#New_Gradient_Swatch_2-6)"/><path d="m32.165 33.014-.33 1.972 6 1a.919.919 0 0 0 .165.014 1 1 0 0 0 1-1v-8a1 1 0 0 0 -1.165-.986l-6 1 .33 1.972 4.835-.8v5.638z" fill="url(#New_Gradient_Swatch_2-7)"/></svg>