<svg height="512" viewBox="0 0 64 64" width="512" xmlns="http://www.w3.org/2000/svg" xmlns:xlink="http://www.w3.org/1999/xlink"><linearGradient id="New_Gradient_Swatch_2" gradientUnits="userSpaceOnUse" x1="33.122" x2="33.122" y1="2.099" y2="58.719"><stop offset="0" stop-color="#fc5c7d"/><stop offset=".129" stop-color="#f35e85"/><stop offset=".343" stop-color="#d9659b"/><stop offset=".616" stop-color="#b070bf"/><stop offset=".934" stop-color="#777ff0"/><stop offset="1" stop-color="#6a82fb"/></linearGradient><linearGradient id="New_Gradient_Swatch_2-2" x1="29.879" x2="29.879" xlink:href="#New_Gradient_Swatch_2" y1="2.099" y2="58.719"/><linearGradient id="New_Gradient_Swatch_2-3" gradientTransform="matrix(.707 .707 -.707 .707 25.954 -7.851)" x1="22.454" x2="22.454" xlink:href="#New_Gradient_Swatch_2" y1="2.099" y2="58.719"/><linearGradient id="New_Gradient_Swatch_2-4" gradientTransform="matrix(.707 .707 -.707 .707 29.627 .993)" x1="13.615" x2="13.615" xlink:href="#New_Gradient_Swatch_2" y1="2.099" y2="58.719"/><path d="m49.678 3.009a1 1 0 0 0 -1.414 0l-2.829 2.828-6.364 6.363a.989.989 0 0 0 -.212.314l-2.045 4.771-29.563 29.565-1.415 1.414a3 3 0 0 0 0 4.242l5.657 5.657a3 3 0 0 0 4.242 0l1.415-1.414 1.83-1.829h5.242a1 1 0 0 0 .707-.293l11.314-11.314-1.414-1.413-11.021 11.02h-2.828l25.733-25.734 4.773-2.045a1 1 0 0 0 .313-.212l6.364-6.365 2.828-2.828a1 1 0 0 0 0-1.414zm-14.85 19.091 7.072 7.072-25.456 25.456-7.071-7.071zm-20.506 34.649a1.02 1.02 0 0 1 -1.413 0l-5.658-5.657a1 1 0 0 1 0-1.414l.707-.707 7.071 7.071zm28.991-28.991-7.071-7.072 1.415-1.415 7.071 7.072zm7.208-4.38-4.151 1.779-7.528-7.528 1.78-4.15 5.52-5.521 1.415 1.415-1.415 1.414 1.414 1.413 1.415-1.414 1.414 1.414-1.414 1.414 1.414 1.414 1.415-1.413 1.414 1.414-1.414 1.414 1.414 1.414 1.415-1.414 1.414 1.414zm6.935-6.935-9.9-9.9 1.415-1.413 9.9 9.9z" fill="url(#New_Gradient_Swatch_2)"/><path d="m27.757 39.241a2.99 2.99 0 0 0 2.121-.877l4.243-4.243a3 3 0 0 0 0-4.242 3.073 3.073 0 0 0 -4.243 0l-4.24 4.239a3 3 0 0 0 2.121 5.12zm3.536-7.948a1 1 0 0 1 1.414 1.414 1.021 1.021 0 0 1 -1.414 0 1 1 0 0 1 0-1.414zm-4.243 4.242 2.25-2.251a2.968 2.968 0 0 0 .576.837 3 3 0 0 0 .837.579l-2.251 2.25a1 1 0 1 1 -1.414-1.415z" fill="url(#New_Gradient_Swatch_2-2)"/><path d="m12.954 26.404h19v2h-19z" fill="url(#New_Gradient_Swatch_2-3)" transform="matrix(.707 -.707 .707 .707 -12.801 23.904)"/><path d="m12.615 35.242h2v2h-2z" fill="url(#New_Gradient_Swatch_2-4)" transform="matrix(.707 -.707 .707 .707 -21.645 20.255)"/></svg>