<svg height="512" viewBox="0 0 64 64" width="512" xmlns="http://www.w3.org/2000/svg" xmlns:xlink="http://www.w3.org/1999/xlink"><linearGradient id="New_Gradient_Swatch_2" gradientUnits="userSpaceOnUse" x1="28" x2="28" y1="4.21" y2="52.05"><stop offset="0" stop-color="#fc5c7d"/><stop offset=".129" stop-color="#f35e85"/><stop offset=".343" stop-color="#d9659b"/><stop offset=".616" stop-color="#b070bf"/><stop offset=".934" stop-color="#777ff0"/><stop offset="1" stop-color="#6a82fb"/></linearGradient><linearGradient id="New_Gradient_Swatch_2-2" x1="32" x2="32" xlink:href="#New_Gradient_Swatch_2" y1="4.21" y2="52.05"/><linearGradient id="New_Gradient_Swatch_2-3" x1="51.901" x2="51.901" xlink:href="#New_Gradient_Swatch_2" y1="4.21" y2="52.05"/><linearGradient id="New_Gradient_Swatch_2-4" x1="34" x2="34" xlink:href="#New_Gradient_Swatch_2" y1="4.21" y2="52.05"/><linearGradient id="New_Gradient_Swatch_2-5" x1="12.099" x2="12.099" xlink:href="#New_Gradient_Swatch_2" y1="4.21" y2="52.05"/><linearGradient id="New_Gradient_Swatch_2-6" x1="3" x2="3" xlink:href="#New_Gradient_Swatch_2" y1="4.21" y2="52.05"/><path d="m25 30v4a5.006 5.006 0 0 0 5 5 1 1 0 0 0 1-1v-12h-2v10.829a3.006 3.006 0 0 1 -2-2.829v-4z" fill="url(#New_Gradient_Swatch_2)"/><path d="m13 22a8.965 8.965 0 0 0 1.749 5.317 7.358 7.358 0 0 0 -1.749 4.683c0 3.449 2.549 6.54 6.651 8.065l.7-1.875c-3.302-1.226-5.351-3.598-5.351-6.19a5.63 5.63 0 0 1 1.774-3.949 1 1 0 0 0 .031-1.372 6.994 6.994 0 0 1 7.253-11.369 1.015 1.015 0 0 0 1-.248 1 1 0 0 0 .249-1 7 7 0 1 1 13.559-.719 1 1 0 0 0 .625 1.126 6.989 6.989 0 0 1 3.628 9.927 1 1 0 0 0 .525 1.422c3.305 1.226 5.356 3.595 5.356 6.182 0 3.859-4.486 7-10 7a14.04 14.04 0 0 1 -1.867-.123l-.266 1.982a16 16 0 0 0 2.133.141c6.617 0 12-4.037 12-9 0-3.153-2.139-6.009-5.652-7.64a8.986 8.986 0 0 0 -4.4-11.438 8.685 8.685 0 0 0 .052-.922 9 9 0 0 0 -18 0 9.172 9.172 0 0 0 .062 1.062 9.159 9.159 0 0 0 -1.062-.062 9.01 9.01 0 0 0 -9 9z" fill="url(#New_Gradient_Swatch_2-2)"/><path d="m58.743 27.364a8.236 8.236 0 0 0 1.257-4.364 9.021 9.021 0 0 0 -6-8.243c-.147-4.851-4.577-8.757-10-8.757a11.108 11.108 0 0 0 -2.2.218l.4 1.961a9.079 9.079 0 0 1 1.8-.179c4.411 0 8 3.141 8 7 0 .085-.007.168-.014.252l-.01.141a1 1 0 0 0 .7 1.019 7.136 7.136 0 0 1 5.324 6.588 6.362 6.362 0 0 1 -1.419 3.968 1 1 0 0 0 .232 1.454 6.7 6.7 0 0 1 3.187 5.578c0 3.859-3.589 7-8 7a8.756 8.756 0 0 1 -4.488-1.207l-1.024 1.719a10.772 10.772 0 0 0 5.512 1.488c5.514 0 10-4.037 10-9a8.657 8.657 0 0 0 -3.257-6.636z" fill="url(#New_Gradient_Swatch_2-3)"/><path d="m46 52.9a5.009 5.009 0 0 0 4-4.9v-3h-2v3a3 3 0 0 1 -2 2.816v-7.816h-2v17h-2v-17h-2v17h-5v-34h-2v34h-2v-18a1 1 0 0 0 -1-1 7.008 7.008 0 0 1 -7-7v-4h-2v4a9.012 9.012 0 0 0 8 8.944v17.056h-5v-17h-2v17h-2v-17h-2v5.816a3 3 0 0 1 -2-2.816v-1h-2v1a5.009 5.009 0 0 0 4 4.9v9.1h-12v2h56v-2h-16z" fill="url(#New_Gradient_Swatch_2-4)"/><path d="m2 34c0 4.963 4.486 9 10 9a10.772 10.772 0 0 0 5.512-1.488l-1.024-1.719a8.756 8.756 0 0 1 -4.488 1.207c-4.411 0-8-3.141-8-7a6.7 6.7 0 0 1 3.187-5.578 1 1 0 0 0 .232-1.454 6.366 6.366 0 0 1 -1.419-3.968 7.138 7.138 0 0 1 5.323-6.589 1 1 0 0 0 .7-1.019l-.01-.14c-.006-.083-.013-.167-.013-.252 0-3.859 3.589-7 8-7a9.079 9.079 0 0 1 1.8.179l.4-1.961a11.108 11.108 0 0 0 -2.2-.218c-5.423 0-9.852 3.906-10 8.756a9.024 9.024 0 0 0 -6 8.244 8.242 8.242 0 0 0 1.257 4.364 8.657 8.657 0 0 0 -3.257 6.636z" fill="url(#New_Gradient_Swatch_2-5)"/><path d="m2 60h2v2h-2z" fill="url(#New_Gradient_Swatch_2-6)"/></svg>