<svg height="512" viewBox="0 0 64 64" width="512" xmlns="http://www.w3.org/2000/svg" xmlns:xlink="http://www.w3.org/1999/xlink"><linearGradient id="New_Gradient_Swatch_2" gradientUnits="userSpaceOnUse" x1="32" x2="32" y1="4.21" y2="52.05"><stop offset="0" stop-color="#fc5c7d"/><stop offset=".129" stop-color="#f35e85"/><stop offset=".343" stop-color="#d9659b"/><stop offset=".616" stop-color="#b070bf"/><stop offset=".934" stop-color="#777ff0"/><stop offset="1" stop-color="#6a82fb"/></linearGradient><linearGradient id="New_Gradient_Swatch_2-2" x1="26" x2="26" xlink:href="#New_Gradient_Swatch_2" y1="4.21" y2="52.05"/><linearGradient id="New_Gradient_Swatch_2-3" x1="38" x2="38" xlink:href="#New_Gradient_Swatch_2" y1="4.21" y2="52.05"/><path d="m40.069 29.271-.138 2c13.691.943 20.069 3.977 20.069 5.729 0 .566-.708 1.345-2.344 2.159-3.856-1.868-10.209-3.259-17.577-3.847l-.158 1.994a58.446 58.446 0 0 1 15.1 2.9 49.888 49.888 0 0 1 -8.164 1.794 4 4 0 0 0 -3.857-3h-5v-21a1 1 0 0 0 1-1v-4a1 1 0 0 0 -1-1v-3a3 3 0 0 0 -3-3h-6a3 3 0 0 0 -3 3v3a1 1 0 0 0 -1 1v4a1 1 0 0 0 1 1v21h-5a4 4 0 0 0 -3.857 3 49.888 49.888 0 0 1 -8.167-1.79 58.446 58.446 0 0 1 15.1-2.9l-.158-1.994c-7.365.584-13.718 1.975-17.574 3.843-1.636-.814-2.344-1.593-2.344-2.159 0-1.752 6.378-4.786 20.069-5.732l-.138-2c-10.602.738-21.931 3.153-21.931 7.732v8c0 4.151 9.022 6.14 15 7v1a4 4 0 0 0 4 4h22a4 4 0 0 0 4-4v-1c5.978-.862 15-2.851 15-7v-8c0-4.579-11.329-6.994-21.931-7.729zm-36.069 15.729v-4.9c2.123 1.494 5.629 2.521 9 3.21v5.957c-6.509-1.384-9-3.203-9-4.267zm11 4.654v-5.967c.692.119 1.363.223 2 .315v5.974c-.7-.103-1.366-.21-2-.322zm12-33.654v-2h10v2zm1-7a1 1 0 0 1 1-1h6a1 1 0 0 1 1 1v3h-8zm8 9v17h-8v-17zm-8 19h8v2h-8zm17 16a2 2 0 0 1 -2 2h-22a2 2 0 0 1 -2-2v-10a2 2 0 0 1 2-2h22a2 2 0 0 1 2 2zm2-9c.637-.092 1.308-.2 2-.315v5.967c-.634.112-1.3.219-2 .322zm4 5.267v-5.955c3.371-.689 6.877-1.716 9-3.21v4.898c0 1.064-2.491 2.883-9 4.269z" fill="url(#New_Gradient_Swatch_2)"/><path d="m26 43a5 5 0 1 0 5 5 5.006 5.006 0 0 0 -5-5zm0 8a3 3 0 1 1 3-3 3 3 0 0 1 -3 3z" fill="url(#New_Gradient_Swatch_2-2)"/><path d="m38 43a5 5 0 1 0 5 5 5.006 5.006 0 0 0 -5-5zm0 8a3 3 0 1 1 3-3 3 3 0 0 1 -3 3z" fill="url(#New_Gradient_Swatch_2-3)"/><path d="m31 31h2v2h-2z" fill="url(#New_Gradient_Swatch_2)"/></svg>