<svg height="512" viewBox="0 0 64 64" width="512" xmlns="http://www.w3.org/2000/svg" xmlns:xlink="http://www.w3.org/1999/xlink"><linearGradient id="New_Gradient_Swatch_2" gradientTransform="matrix(.342 .94 -.94 .342 66.837 -19.026)" gradientUnits="userSpaceOnUse" x1="47" x2="47" y1="2.574" y2="58.703"><stop offset="0" stop-color="#fc5c7d"/><stop offset=".129" stop-color="#f35e85"/><stop offset=".343" stop-color="#d9659b"/><stop offset=".616" stop-color="#b070bf"/><stop offset=".934" stop-color="#777ff0"/><stop offset="1" stop-color="#6a82fb"/></linearGradient><linearGradient id="New_Gradient_Swatch_2-2" x1="38.986" x2="38.986" xlink:href="#New_Gradient_Swatch_2" y1="2.574" y2="58.703"/><linearGradient id="New_Gradient_Swatch_2-3" x1="32" x2="32" xlink:href="#New_Gradient_Swatch_2" y1="2.574" y2="58.703"/><linearGradient id="New_Gradient_Swatch_2-4" x1="13" x2="13" xlink:href="#New_Gradient_Swatch_2" y1="2.574" y2="58.703"/><linearGradient id="New_Gradient_Swatch_2-5" x1="17" x2="17" xlink:href="#New_Gradient_Swatch_2" y1="2.574" y2="58.703"/><path d="m46 37.134h2v2.128h-2z" fill="url(#New_Gradient_Swatch_2)" transform="matrix(.342 -.94 .94 .342 -4.96 69.315)"/><path d="m35.448 35.062 8.21 2.985.684-1.88-7.6-2.765-1.118-14.479-1.994.154 1.163 15.123a1 1 0 0 0 .655.862z" fill="url(#New_Gradient_Swatch_2-2)"/><path d="m8.009 53.746-1.9 3.807a1 1 0 0 0 -.109.447v3a1 1 0 0 0 1 1h4a1 1 0 0 0 .707-.293l1.707-1.707h3.172l1.707 1.707a1 1 0 0 0 .707.293h4a1 1 0 0 0 .707-.293l1.707-1.707h6.172l1.707 1.707a1 1 0 0 0 .707.293h5a1 1 0 0 0 .707-.293l1.707-1.707h4.172l1.707 1.707a1 1 0 0 0 .707.293h5a1 1 0 0 0 .707-.293l4-4a1 1 0 0 0 .293-.707v-5.358a8.926 8.926 0 0 0 -5.875-8.388l-19.178-6.973-1.947-25.358a1 1 0 0 0 -1-.923c-14.1 0-23.109 4.917-23.485 5.126a1 1 0 0 0 -.48 1.137c.029.109 2.965 10.972 2.965 19.737 0 6.7-.567 12.943-.84 15.941-.085.933-.133 1.475-.151 1.805zm22.458-23.641-3.709.925.484 1.94 3.38-.843.368 4.78-3.741 2.3-1.468-1.835a1 1 0 0 0 -1.036-.342l-13.829 3.641c.052-1.507.084-3.071.084-4.671 0-1.39-.071-2.822-.188-4.25l19.388-5.164zm3.056 13.747 5.351-3.288 4.04 1.469-3.438 2.115 1.048 1.7 4.788-2.947 1.29.469a6.248 6.248 0 0 0 -1.602 4.158 1.109 1.109 0 0 1 -1.019 1.182c-5.021.19-9.725.29-13.981.29-1.2 0-2.326-.01-3.42-.025l3.277-5.46a1 1 0 0 0 -.076-1.14l-1.273-1.591 4.073-2.508 3.893 1.415-4 2.457zm-23.46 9.27c.026-.3.056-.632.089-1 .18-1.979.486-5.36.677-9.36l13.8-3.63.908 1.134-3.057 1.882 1.048 1.7 3.268-2.012.993 1.242-6.472 10.78c-5.875-.199-9.639-.558-11.254-.736zm42.523 6.878h-4.172l-1.707-1.707a1 1 0 0 0 -.707-.293h-5a1 1 0 0 0 -.707.293l-1.707 1.707h-4.172l-1.707-1.707a1 1 0 0 0 -.707-.293h-7a1 1 0 0 0 -.707.293l-1.707 1.707h-3.172l-1.707-1.707a1 1 0 0 0 -.707-.293h-4a1 1 0 0 0 -.707.293l-1.707 1.707h-2.586v-1.764l1.577-3.155.061.007.228.026.3.034.283.03.405.041.32.032.589.054.283.026c.294.026.611.053.946.079l.385.03.749.056.479.033.809.054.529.033c.3.018.619.036.941.053l.526.029q.675.034 1.4.068l.191.009c.55.024 1.127.046 1.722.068l.577.018c.423.014.851.028 1.3.04l.738.019q.643.015 1.314.028l.787.015c.481.007.977.014 1.479.019l.738.008c.762.01 1.538.01 2.344.01q1.929 0 3.824-.025h.292c1.364-.018 2.706-.044 4.017-.076h.122c4.4-.108 8.419-.284 11.61-.451l.688-.036.343-.019c2.283-.124 4.054-.24 5.1-.313v1.512zm2.029-12.513a6.964 6.964 0 0 1 1.385 4.155v1.427c-.947.066-2.583.174-4.72.294l-.119.006-.362.02c-1.159.064-2.447.129-3.845.192-3.016.139-5.951.244-8.783.314q-2.1.051-4.127.078h-.068q-2.031.027-3.976.027c-2.328 0-4.448-.03-6.39-.076l1.78-2.965c1.445.024 2.968.041 4.61.041 4.281 0 9.011-.1 14.062-.291a3.117 3.117 0 0 0 2.938-3.209 4.311 4.311 0 0 1 1.693-3.366l2.748 1a6.9 6.9 0 0 1 3.174 2.353zm-25.375-33.332-3.483.875.486 1.94 3.152-.792.241 3.136-2.877.715.482 1.942 2.551-.634.248 3.22-19.425 5.175c-.2-1.748-.447-3.458-.72-5.053l13.373-3.716a1 1 0 0 0 .732-1.046l-.629-7.527a56.435 56.435 0 0 1 5.707-.383zm-7.857-1.495.552 6.6-12.398 3.44c-.537-2.787-1.076-5.036-1.365-6.17a48.878 48.878 0 0 1 13.211-3.87z" fill="url(#New_Gradient_Swatch_2-3)"/><path d="m12 49h2v2h-2z" fill="url(#New_Gradient_Swatch_2-4)"/><path d="m16 50h2v2h-2z" fill="url(#New_Gradient_Swatch_2-5)"/></svg>