<svg height="512" viewBox="0 0 64 64" width="512" xmlns="http://www.w3.org/2000/svg" xmlns:xlink="http://www.w3.org/1999/xlink"><linearGradient id="New_Gradient_Swatch_2" gradientUnits="userSpaceOnUse" x1="41" x2="41" y1="3.839" y2="57.224"><stop offset="0" stop-color="#fc5c7d"/><stop offset=".129" stop-color="#f35e85"/><stop offset=".343" stop-color="#d9659b"/><stop offset=".616" stop-color="#b070bf"/><stop offset=".934" stop-color="#777ff0"/><stop offset="1" stop-color="#6a82fb"/></linearGradient><linearGradient id="New_Gradient_Swatch_2-2" x1="22" x2="22" xlink:href="#New_Gradient_Swatch_2" y1="3.839" y2="57.224"/><linearGradient id="New_Gradient_Swatch_2-3" gradientTransform="matrix(.86 .51 -.51 .86 6.922 -7.968)" x1="18" x2="18" xlink:href="#New_Gradient_Swatch_2" y1="3.839" y2="57.224"/><linearGradient id="New_Gradient_Swatch_2-4" gradientTransform="matrix(.86 .51 -.51 .86 9.032 -.27)" x1="5.008" x2="5.008" xlink:href="#New_Gradient_Swatch_2" y1="3.839" y2="57.224"/><linearGradient id="New_Gradient_Swatch_2-5" x1="32" x2="32" xlink:href="#New_Gradient_Swatch_2" y1="3.839" y2="57.224"/><linearGradient id="New_Gradient_Swatch_2-6" x1="31.5" x2="31.5" xlink:href="#New_Gradient_Swatch_2" y1="3.839" y2="57.224"/><linearGradient id="New_Gradient_Swatch_2-7" x1="32.5" x2="32.5" xlink:href="#New_Gradient_Swatch_2" y1="3.839" y2="57.224"/><linearGradient id="New_Gradient_Swatch_2-8" x1="48" x2="48" xlink:href="#New_Gradient_Swatch_2" y1="3.839" y2="57.224"/><linearGradient id="New_Gradient_Swatch_2-9" x1="44" x2="44" xlink:href="#New_Gradient_Swatch_2" y1="3.839" y2="57.224"/><linearGradient id="New_Gradient_Swatch_2-10" x1="19" x2="19" xlink:href="#New_Gradient_Swatch_2" y1="3.839" y2="57.224"/><linearGradient id="New_Gradient_Swatch_2-11" x1="37" x2="37" xlink:href="#New_Gradient_Swatch_2" y1="3.839" y2="57.224"/><path d="m35 42v14a1 1 0 0 0 1 1h10a1 1 0 0 0 1-1v-14a1 1 0 0 0 -1-1h-10a1 1 0 0 0 -1 1zm10 9h-3v-3h3zm-5 0h-3v-3h3zm5 4h-8v-2h8zm0-9h-3v-3h3zm-5-3v3h-3v-3z" fill="url(#New_Gradient_Swatch_2)"/><path d="m21 50h2v2h-2z" fill="url(#New_Gradient_Swatch_2-2)"/><path d="m6.376 7.647h23.248v2h-23.248z" fill="url(#New_Gradient_Swatch_2-3)" transform="matrix(.86 -.51 .51 .86 -1.893 10.383)"/><path d="m3.855 15.346h2.307v2h-2.307z" fill="url(#New_Gradient_Swatch_2-4)" transform="matrix(.86 -.51 .51 .86 -7.633 4.836)"/><path d="m4 22.226a3.143 3.143 0 0 0 4.757 2.71l.243-.144v5.35a3.981 3.981 0 0 0 0 7.716v4.284a3.981 3.981 0 0 0 0 7.716v4.284a3.992 3.992 0 0 0 1 7.858h44a3.992 3.992 0 0 0 1-7.858v-4.284a3.981 3.981 0 0 0 0-7.716v-4.284a3.981 3.981 0 0 0 0-7.716v-5.35l.243.144a3.151 3.151 0 0 0 4.757-2.71 3.163 3.163 0 0 0 -1.545-2.711l-25.945-15.375a1 1 0 0 0 -1.02 0l-25.945 15.375a3.163 3.163 0 0 0 -1.545 2.711zm25 37.774h-10v-15a5 5 0 0 1 10 0zm24-30h-8v2h9a2 2 0 0 1 0 4h-3v2h2v4h-4v2h5a2 2 0 0 1 0 4h-3v2h2v4h-4v2h5a2 2 0 0 1 0 4h-23v-15a7 7 0 0 0 -14 0v15h-7a2 2 0 0 1 0-4h5v-2h-4v-4h3v-2h-4a2 2 0 0 1 0-4h3v-2h-2v-4h7v-2h-8a2 2 0 0 1 0-4h4v-2h-3v-4h23v-2h-23v-.393l21-12.444 21 12.444zm-46.436-8.765 25.436-15.072 25.436 15.072a1.156 1.156 0 0 1 .564.991 1.15 1.15 0 0 1 -1.737.989l-23.753-14.075a1 1 0 0 0 -1.02 0l-23.753 14.075a1.15 1.15 0 0 1 -1.737-.989 1.156 1.156 0 0 1 .564-.991z" fill="url(#New_Gradient_Swatch_2-5)"/><path d="m22 30h19v2h-19z" fill="url(#New_Gradient_Swatch_2-6)"/><path d="m24 18h17v2h-17z" fill="url(#New_Gradient_Swatch_2-7)"/><path d="m47 36h2v2h-2z" fill="url(#New_Gradient_Swatch_2-8)"/><path d="m38 24h12v2h-12z" fill="url(#New_Gradient_Swatch_2-9)"/><path d="m18 30h2v2h-2z" fill="url(#New_Gradient_Swatch_2-10)"/><path d="m31 36h12v2h-12z" fill="url(#New_Gradient_Swatch_2-11)"/></svg>