<svg height="512" viewBox="0 0 64 64" width="512" xmlns="http://www.w3.org/2000/svg" xmlns:xlink="http://www.w3.org/1999/xlink"><linearGradient id="New_Gradient_Swatch_2" gradientTransform="matrix(.707 .707 -.707 .707 51.586 -21.953)" gradientUnits="userSpaceOnUse" x1="52.293" x2="52.293" y1="2.574" y2="58.703"><stop offset="0" stop-color="#fc5c7d"/><stop offset=".129" stop-color="#f35e85"/><stop offset=".343" stop-color="#d9659b"/><stop offset=".616" stop-color="#b070bf"/><stop offset=".934" stop-color="#777ff0"/><stop offset="1" stop-color="#6a82fb"/></linearGradient><linearGradient id="New_Gradient_Swatch_2-2" gradientTransform="matrix(.707 .707 -.707 .707 34.722 -13.541)" x1="33.707" x2="33.707" xlink:href="#New_Gradient_Swatch_2" y1="2.574" y2="58.703"/><linearGradient id="New_Gradient_Swatch_2-3" gradientTransform="matrix(.707 .707 -.707 .707 21.373 -15.481)" x1="29.374" x2="29.374" xlink:href="#New_Gradient_Swatch_2" y1="2.574" y2="58.703"/><linearGradient id="New_Gradient_Swatch_2-4" x1="19.141" x2="19.141" xlink:href="#New_Gradient_Swatch_2" y1="2.574" y2="58.703"/><linearGradient id="New_Gradient_Swatch_2-5" x1="31.998" x2="31.998" xlink:href="#New_Gradient_Swatch_2" y1="2.574" y2="58.703"/><linearGradient id="New_Gradient_Swatch_2-6" x1="18.812" x2="18.812" xlink:href="#New_Gradient_Swatch_2" y1="2.574" y2="58.703"/><linearGradient id="New_Gradient_Swatch_2-7" x1="45.646" x2="45.646" xlink:href="#New_Gradient_Swatch_2" y1="2.574" y2="58.703"/><linearGradient id="New_Gradient_Swatch_2-8" gradientTransform="matrix(.707 .707 -.707 .707 25.923 -22.625)" x1="40.272" x2="40.272" xlink:href="#New_Gradient_Swatch_2" y1="2.574" y2="58.703"/><linearGradient id="New_Gradient_Swatch_2-9" x1="53" x2="53" xlink:href="#New_Gradient_Swatch_2" y1="2.574" y2="58.703"/><path d="m51.293 50.293h2v2h-2z" fill="url(#New_Gradient_Swatch_2)" transform="matrix(.707 -.707 .707 .707 -20.953 52)"/><path d="m32.707 34.143h2v2h-2z" fill="url(#New_Gradient_Swatch_2-2)" transform="matrix(.707 -.707 .707 .707 -14.977 34.128)"/><path d="m28.374 17.173h2v1.772h-2z" fill="url(#New_Gradient_Swatch_2-3)" transform="matrix(.707 -.707 .707 .707 -4.166 26.06)"/><path d="m10.044 5.66-.088 2a19.126 19.126 0 0 1 12.852 5.25l4.1 4.1 1.418-1.41-4.1-4.1a21.088 21.088 0 0 0 -14.182-5.84z" fill="url(#New_Gradient_Swatch_2-4)"/><path d="m6.375 9.8a1 1 0 0 0 -.783 1.3c2.353 7.049 15.808 19.642 21.945 25.124a5.227 5.227 0 0 0 -.072.726 1 1 0 0 0 .293.707c4.942 4.943 22.679 18.598 23.431 19.177a.992.992 0 0 0 .806.188l3.536-.707a1 1 0 0 0 .752-.664l2.117-6.364a1 1 0 0 0 -.553-1.235c-.048-.021-4.8-2.072-6.759-4.031a18.387 18.387 0 0 1 -2.349-3.029 20.352 20.352 0 0 0 -2.6-3.335 15.4 15.4 0 0 0 -4.149-2.662 13.772 13.772 0 0 1 -3.629-2.288 3.434 3.434 0 0 1 -.519-3.8 1 1 0 0 0 -.895-1.448 8.371 8.371 0 0 0 -3.575 1.046 4.486 4.486 0 0 1 -1.785-3.58 1 1 0 0 0 -.294-.708s-4.249-4.24-9.9-9.9c-5.951-5.95-14.649-4.575-15.018-4.517zm30.575 24.321a15.389 15.389 0 0 0 4.15 2.663 13.763 13.763 0 0 1 3.628 2.287 18.457 18.457 0 0 1 2.351 3.029 20.336 20.336 0 0 0 2.6 3.333 26.338 26.338 0 0 0 6.544 4.076l-1.653 4.957-2.52.5c-2.532-1.956-17.68-13.7-22.547-18.4a8.307 8.307 0 0 1 2.497-4.566 8.952 8.952 0 0 1 3.546-2.254 4.952 4.952 0 0 0 1.404 4.375zm-16.968-18.385c4.8 4.808 8.589 8.592 9.622 9.623a6.5 6.5 0 0 0 2.03 4.294 12.149 12.149 0 0 0 -1.048.933 11.228 11.228 0 0 0 -2.42 3.515c-5.151-4.644-17.022-15.773-20.191-22.44 2.477-.121 8.043.11 12.007 4.075z" fill="url(#New_Gradient_Swatch_2-5)"/><path d="m4.21 50.385a17 17 0 0 0 24.041 0l5.456-5.456-1.414-1.414-5.456 5.456a15 15 0 0 1 -20.483.684l15.946-15.948-1.414-1.414-16.676 16.678a1 1 0 0 0 0 1.414z" fill="url(#New_Gradient_Swatch_2-6)"/><path d="m57.949 7.958a7 7 0 0 0 -9.9 0l-6.364 6.364-.708-.707a1 1 0 0 0 -1.414 0l-8.272 8.272 1.416 1.413 7.565-7.565 5.657 5.658-1.414 1.414a7.012 7.012 0 0 0 -.658 9.142l-1.564 1.565 1.414 1.414 2.222-2.222a1 1 0 0 0 0-1.414 5.018 5.018 0 0 1 -.636-.779l12.656-12.655a7 7 0 0 0 0-9.9zm-1.414 8.486-12 12a4.975 4.975 0 0 1 1.4-4.225l2.115-2.119a1 1 0 0 0 0-1.414l-4.95-4.95 6.365-6.364a5 5 0 1 1 7.07 7.071z" fill="url(#New_Gradient_Swatch_2-7)"/><path d="m39.273 18.979h2v2h-2z" fill="url(#New_Gradient_Swatch_2-8)" transform="matrix(.707 -.707 .707 .707 -2.332 34.329)"/><path d="m53 10a3 3 0 1 0 3 3 3 3 0 0 0 -3-3zm0 4a1 1 0 1 1 1-1 1 1 0 0 1 -1 1z" fill="url(#New_Gradient_Swatch_2-9)"/></svg>