<svg height="512" viewBox="0 0 64 64" width="512" xmlns="http://www.w3.org/2000/svg" xmlns:xlink="http://www.w3.org/1999/xlink"><linearGradient id="New_Gradient_Swatch_2" gradientUnits="userSpaceOnUse" x1="32" x2="32" y1="2.099" y2="58.719"><stop offset="0" stop-color="#fc5c7d"/><stop offset=".129" stop-color="#f35e85"/><stop offset=".343" stop-color="#d9659b"/><stop offset=".616" stop-color="#b070bf"/><stop offset=".934" stop-color="#777ff0"/><stop offset="1" stop-color="#6a82fb"/></linearGradient><g fill="url(#New_Gradient_Swatch_2)"><path d="m49 56h-1.051a13.017 13.017 0 0 0 -7.949-11v-3.522a17.185 17.185 0 0 0 4.688-5.78l1.77 1.142 1.084-1.68-2.062-1.33a17.167 17.167 0 0 0 .715-8.848l-1.079-5.932 3.426-2.21-1.084-1.68-2.729 1.761-.529-2.921h1.8a1 1 0 0 0 1-1v-6a1 1 0 0 0 -1-1h-4v-2h2v-2h-24v2h2v2h-4a1 1 0 0 0 -1 1v6a1 1 0 0 0 1 1h1.8l-.531 2.921-2.727-1.761-1.084 1.68 3.426 2.21-1.079 5.932a17.167 17.167 0 0 0 .715 8.848l-2.062 1.33 1.084 1.68 1.77-1.142a17.185 17.185 0 0 0 4.688 5.78v3.522a13.017 13.017 0 0 0 -7.949 11h-1.051a1 1 0 0 0 -1 1v4a1 1 0 0 0 1 1h34a1 1 0 0 0 1-1v-4a1 1 0 0 0 -1-1zm-4.773-30.66a15.187 15.187 0 0 1 -.475 7.375l-9.908-6.392 9.453-6.1zm-20.227-21.34h16v2h-16zm-5 4h26v4h-26zm2.835 6h20.33l.745 4.094-10.91 7.039-10.91-7.039zm-2.062 11.34.93-5.116 9.453 6.1-9.908 6.392a15.187 15.187 0 0 1 -.475-7.376zm1.227 9.268 11-7.1 11 7.1a15.169 15.169 0 0 1 -4.352 5.392h-3.648v-3a1 1 0 0 0 -1-1h-1v-1a4 4 0 0 0 -4-4v2a2 2 0 0 1 2 2v1h-1a1 1 0 0 0 -1 1v3h-3.648a15.169 15.169 0 0 1 -4.352-5.392zm12 3.392v2h-2v-2zm-7 4h12v2.363a12.961 12.961 0 0 0 -3-.363h-6a12.961 12.961 0 0 0 -3 .363zm3 4h6a11.015 11.015 0 0 1 10.955 10h-27.91a11.015 11.015 0 0 1 10.955-10zm19 14h-32v-2h32z"/><path d="m32 48a3 3 0 1 0 3 3 3 3 0 0 0 -3-3zm0 4a1 1 0 1 1 1-1 1 1 0 0 1 -1 1z"/></g></svg>