<svg height="512" viewBox="0 0 64 64" width="512" xmlns="http://www.w3.org/2000/svg" xmlns:xlink="http://www.w3.org/1999/xlink"><linearGradient id="New_Gradient_Swatch_2" gradientUnits="userSpaceOnUse" x1="34" x2="34" y1="1.845" y2="58.816"><stop offset="0" stop-color="#fc5c7d"/><stop offset=".129" stop-color="#f35e85"/><stop offset=".343" stop-color="#d9659b"/><stop offset=".616" stop-color="#b070bf"/><stop offset=".934" stop-color="#777ff0"/><stop offset="1" stop-color="#6a82fb"/></linearGradient><linearGradient id="New_Gradient_Swatch_2-2" x1="28" x2="28" xlink:href="#New_Gradient_Swatch_2" y1="1.845" y2="58.816"/><linearGradient id="New_Gradient_Swatch_2-5" x1="30" x2="30" xlink:href="#New_Gradient_Swatch_2" y1="1.845" y2="58.816"/><linearGradient id="New_Gradient_Swatch_2-6" x1="31" x2="31" xlink:href="#New_Gradient_Swatch_2" y1="1.845" y2="58.816"/><linearGradient id="New_Gradient_Swatch_2-7" x1="57" x2="57" xlink:href="#New_Gradient_Swatch_2" y1="1.845" y2="58.816"/><linearGradient id="New_Gradient_Swatch_2-9" x1="49" x2="49" xlink:href="#New_Gradient_Swatch_2" y1="1.845" y2="58.816"/><linearGradient id="New_Gradient_Swatch_2-10" x1="45" x2="45" xlink:href="#New_Gradient_Swatch_2" y1="1.845" y2="58.816"/><path d="m33 26h2v2h-2z" fill="url(#New_Gradient_Swatch_2)"/><path d="m27 26h2v2h-2z" fill="url(#New_Gradient_Swatch_2-2)"/><path d="m33 30h2v2h-2z" fill="url(#New_Gradient_Swatch_2)"/><path d="m27 30h2v2h-2z" fill="url(#New_Gradient_Swatch_2-2)"/><path d="m19 8h-8a5.006 5.006 0 0 0 -5 5v18a5.006 5.006 0 0 0 5 5h7v21a5.006 5.006 0 0 0 5 5h26a5.006 5.006 0 0 0 5-5v-22a1 1 0 0 0 -1-1h-12.3l2.664-2.283a4.908 4.908 0 0 0 1.636.283 5 5 0 1 0 -3.071-8.918l-3.654-1.044v.017a.94.94 0 0 0 -.275-.055h-14a1 1 0 0 0 -1 1v11h-3v-25a1 1 0 0 0 -1-1zm-11 23v-18a3 3 0 0 1 3-3h7v24h-7a3 3 0 0 1 -3-3zm41 29h-26a3 3 0 0 1 -3-3v-16h32v16a3 3 0 0 1 -3 3zm3-21h-32v-3h32zm-8-11.516a2.294 2.294 0 0 1 -.8 1.743l-4.2 3.6v-8.5l3.336.953a2.3 2.3 0 0 1 1.664 2.204zm4-.484a3 3 0 0 1 -2.811 2.981 4.253 4.253 0 0 0 -.879-5.892 2.946 2.946 0 0 1 .69-.089 3 3 0 0 1 3 3zm-23-3h12v10h-12z" fill="url(#New_Gradient_Swatch_2-5)"/><path d="m37 16c0-5.5-5.262-8.723-5.485-8.857a1 1 0 0 0 -1.03 0c-.223.134-5.485 3.357-5.485 8.857 0 3.037 2.355 5 6 5s6-1.963 6-5zm-7 2a4.647 4.647 0 0 1 1-2.439 4.647 4.647 0 0 1 1 2.439 1 1 0 0 1 -2 0zm-3-2c0-3.461 2.819-5.912 4-6.788 1.185.872 4 3.31 4 6.788a2.579 2.579 0 0 1 -1.019 2.189c0-.064.019-.124.019-.189 0-2.347-2.058-4.473-2.293-4.707a1 1 0 0 0 -1.414 0c-.235.234-2.293 2.36-2.293 4.707 0 .065.015.125.019.189a2.579 2.579 0 0 1 -1.019-2.189z" fill="url(#New_Gradient_Swatch_2-6)"/><path d="m56 38h2v15h-2z" fill="url(#New_Gradient_Swatch_2-7)"/><path d="m56 55h2v2h-2z" fill="url(#New_Gradient_Swatch_2-7)"/><path d="m48 56h2v2h-2z" fill="url(#New_Gradient_Swatch_2-9)"/><path d="m44 56h2v2h-2z" fill="url(#New_Gradient_Swatch_2-10)"/></svg>