<svg height="512" viewBox="0 0 64 64" width="512" xmlns="http://www.w3.org/2000/svg" xmlns:xlink="http://www.w3.org/1999/xlink"><linearGradient id="New_Gradient_Swatch_2" gradientUnits="userSpaceOnUse" x1="51" x2="51" y1="3.301" y2="58.124"><stop offset="0" stop-color="#fc5c7d"/><stop offset=".129" stop-color="#f35e85"/><stop offset=".343" stop-color="#d9659b"/><stop offset=".616" stop-color="#b070bf"/><stop offset=".934" stop-color="#777ff0"/><stop offset="1" stop-color="#6a82fb"/></linearGradient><linearGradient id="New_Gradient_Swatch_2-2" x1="30.998" x2="30.998" xlink:href="#New_Gradient_Swatch_2" y1="3.301" y2="58.124"/><linearGradient id="New_Gradient_Swatch_2-3" x1="41" x2="41" xlink:href="#New_Gradient_Swatch_2" y1="3.301" y2="58.124"/><linearGradient id="New_Gradient_Swatch_2-4" x1="26" x2="26" xlink:href="#New_Gradient_Swatch_2" y1="3.301" y2="58.124"/><linearGradient id="New_Gradient_Swatch_2-8" x1="55" x2="55" xlink:href="#New_Gradient_Swatch_2" y1="3.301" y2="58.124"/><linearGradient id="New_Gradient_Swatch_2-11" x1="12" x2="12" xlink:href="#New_Gradient_Swatch_2" y1="3.301" y2="58.124"/><path d="m59 42a2.967 2.967 0 0 0 -1.471.4 2.972 2.972 0 0 0 -3.645-1.181 2.95 2.95 0 0 0 -3.884-2.035v-2.184a3 3 0 0 0 -6 0v9.382l-1.051.525a5.336 5.336 0 0 0 -.573 9.212l2.733 1.822a2 2 0 0 1 .891 1.664v2.395h2v-2.4a3.993 3.993 0 0 0 -1.781-3.328l-2.734-1.822a3.336 3.336 0 0 1 .359-5.759l.156-.073v2.382h2v-14a1 1 0 0 1 2 0v9h2v-4a1 1 0 0 1 2 0v5h2v-3a1 1 0 0 1 2 0v4h2v-3a1 1 0 0 1 2 0v4.528a18.023 18.023 0 0 1 -1.9 8.025 1 1 0 0 0 -.1.447v4h2v-3.767a20.05 20.05 0 0 0 2-8.7v-4.533a3 3 0 0 0 -3-3z" fill="url(#New_Gradient_Swatch_2)"/><path d="m4.008 18.008a1 1 0 0 0 .659-.248l5.175-4.528a3.007 3.007 0 0 1 4.1.136l1.058 1.061v5.586h-2v2h7a2 2 0 0 1 0 4h-8a1 1 0 0 0 -1 1 4 4 0 0 1 -4 4h-5v2h5a5.978 5.978 0 0 0 4.523-2.077l3.477 3.476v25.586a1 1 0 0 0 1 1h28v-2h-6v-32h20v13h2v-37a1 1 0 0 0 -1-1h-43a1 1 0 0 0 -1 1v8.664a5 5 0 0 0 -6.475.063l-4.891 4.279-1.634-.006v2l2 .008zm19.992 6.007a4 4 0 0 0 -4-4h-3v-2.015h12v22h-12v-11.985h3a4 4 0 0 0 4-4zm-11.413 5.158a5.919 5.919 0 0 0 .33-1.158h2.083v3.571zm4.413 18.827h12v11h-12zm20-23a1 1 0 0 0 -1 1v33h-5v-12a1 1 0 0 0 -1-1h-13v-4h13a1 1 0 0 0 1-1v-24a1 1 0 0 0 -1-1h-13v-4h13a1 1 0 0 0 1-1v-7h5v16a1 1 0 0 0 1 1h21v4zm21-6h-20v-15h20zm-29-15v6h-12v-6z" fill="url(#New_Gradient_Swatch_2-2)"/><path d="m40 29h2v2h-2z" fill="url(#New_Gradient_Swatch_2-3)"/><g fill="url(#New_Gradient_Swatch_2-4)"><path d="m25 50h2v2h-2z"/><path d="m25 36h2v2h-2z"/><path d="m25 20h2v2h-2z"/><path d="m25 6h2v2h-2z"/></g><path d="m54 29h2v2h-2z" fill="url(#New_Gradient_Swatch_2-8)"/><path d="m40 15h2v2h-2z" fill="url(#New_Gradient_Swatch_2-3)"/><path d="m54 15h2v2h-2z" fill="url(#New_Gradient_Swatch_2-8)"/><path d="m11 37h2v17h-2z" fill="url(#New_Gradient_Swatch_2-11)"/><path d="m11 56h2v2h-2z" fill="url(#New_Gradient_Swatch_2-11)"/></svg>