<svg height="512" viewBox="0 0 64 64" width="512" xmlns="http://www.w3.org/2000/svg" xmlns:xlink="http://www.w3.org/1999/xlink"><linearGradient id="New_Gradient_Swatch_2" gradientUnits="userSpaceOnUse" x1="19" x2="19" y1="3.301" y2="58.124"><stop offset="0" stop-color="#fc5c7d"/><stop offset=".129" stop-color="#f35e85"/><stop offset=".343" stop-color="#d9659b"/><stop offset=".616" stop-color="#b070bf"/><stop offset=".934" stop-color="#777ff0"/><stop offset="1" stop-color="#6a82fb"/></linearGradient><linearGradient id="New_Gradient_Swatch_2-2" x1="48.857" x2="48.857" xlink:href="#New_Gradient_Swatch_2" y1="3.301" y2="58.124"/><linearGradient id="New_Gradient_Swatch_2-3" x1="55" x2="55" xlink:href="#New_Gradient_Swatch_2" y1="3.301" y2="58.124"/><linearGradient id="New_Gradient_Swatch_2-4" x1="60" x2="60" xlink:href="#New_Gradient_Swatch_2" y1="3.301" y2="58.124"/><linearGradient id="New_Gradient_Swatch_2-5" x1="36" x2="36" xlink:href="#New_Gradient_Swatch_2" y1="3.301" y2="58.124"/><linearGradient id="New_Gradient_Swatch_2-6" x1="5" x2="5" xlink:href="#New_Gradient_Swatch_2" y1="3.301" y2="58.124"/><linearGradient id="New_Gradient_Swatch_2-7" x1="32" x2="32" xlink:href="#New_Gradient_Swatch_2" y1="3.301" y2="58.124"/><path d="m34.291 26.438a16.843 16.843 0 0 0 1.709-7.438 17 17 0 1 0 -26.913 13.812l1.167-1.624a15 15 0 1 1 23.746-12.188 14.858 14.858 0 0 1 -1.507 6.562z" fill="url(#New_Gradient_Swatch_2)"/><path d="m56.867 10.535a8 8 0 0 0 -15.75.1 8.076 8.076 0 0 0 -5.4-.3l.572 1.917a6.049 6.049 0 0 1 5.153.84 1 1 0 0 0 1.574-.857l-.016-.235a6 6 0 0 1 11.969-.615 1 1 0 0 0 .715.859 6 6 0 0 1 -1.684 11.756h-16a6.181 6.181 0 0 1 -.859-.061l-.282 1.98a8.1 8.1 0 0 0 1.141.081h16a8 8 0 0 0 2.867-15.465z" fill="url(#New_Gradient_Swatch_2-2)"/><path d="m54 29h2v2h-2z" fill="url(#New_Gradient_Swatch_2-3)"/><path d="m59 37h2v2h-2z" fill="url(#New_Gradient_Swatch_2-4)"/><path d="m35 3h2v2h-2z" fill="url(#New_Gradient_Swatch_2-5)"/><path d="m4 36h2v2h-2z" fill="url(#New_Gradient_Swatch_2-6)"/><path d="m49.636 31.694a1 1 0 0 0 -.952-.694h-11.368a1 1 0 0 0 -.952.694l-9.093 28.306h-20.005l6.6-27.72 3.427 3.427a1 1 0 0 0 1.414 0l4.293-4.293 3.293 3.293a1 1 0 0 0 1.414 0l2.425-2.425 1.177 4.949 1.945-.462-4.281-18a1 1 0 0 0 -.973-.769h-12a1 1 0 0 0 -.973.769l-9.817 41.231h-3.21v2h60v-2h-3.271zm-32.846-11.694h10.42l2.378 10-2.588 2.586-3.293-3.293a1 1 0 0 0 -1.414 0l-4.293 4.293-3.59-3.586zm21.255 13h9.91l1.612 5.019-2.567 2.567-2.293-2.293a1 1 0 0 0 -1.414 0l-4.293 4.293-3.054-3.054zm-2.786 8.673 3.034 3.034a1 1 0 0 0 1.414 0l4.293-4.293 2.293 2.293a1 1 0 0 0 1.414 0l2.548-2.548 6.373 19.841h-27.256z" fill="url(#New_Gradient_Swatch_2-7)"/></svg>