<svg height="512" viewBox="0 0 64 64" width="512" xmlns="http://www.w3.org/2000/svg" xmlns:xlink="http://www.w3.org/1999/xlink"><linearGradient id="New_Gradient_Swatch_2" gradientUnits="userSpaceOnUse" x1="41" x2="41" y1="2.574" y2="58.703"><stop offset="0" stop-color="#fc5c7d"/><stop offset=".129" stop-color="#f35e85"/><stop offset=".343" stop-color="#d9659b"/><stop offset=".616" stop-color="#b070bf"/><stop offset=".934" stop-color="#777ff0"/><stop offset="1" stop-color="#6a82fb"/></linearGradient><linearGradient id="New_Gradient_Swatch_2-3" x1="32" x2="32" xlink:href="#New_Gradient_Swatch_2" y1="2.574" y2="58.703"/><linearGradient id="New_Gradient_Swatch_2-4" x1="30" x2="30" xlink:href="#New_Gradient_Swatch_2" y1="2.574" y2="58.703"/><linearGradient id="New_Gradient_Swatch_2-5" x1="34" x2="34" xlink:href="#New_Gradient_Swatch_2" y1="2.574" y2="58.703"/><linearGradient id="New_Gradient_Swatch_2-7" x1="21" x2="21" xlink:href="#New_Gradient_Swatch_2" y1="2.574" y2="58.703"/><linearGradient id="New_Gradient_Swatch_2-8" x1="18" x2="18" xlink:href="#New_Gradient_Swatch_2" y1="2.574" y2="58.703"/><linearGradient id="New_Gradient_Swatch_2-9" x1="31" x2="31" xlink:href="#New_Gradient_Swatch_2" y1="2.574" y2="58.703"/><linearGradient id="New_Gradient_Swatch_2-10" x1="45" x2="45" xlink:href="#New_Gradient_Swatch_2" y1="2.574" y2="58.703"/><linearGradient id="New_Gradient_Swatch_2-11" x1="54" x2="54" xlink:href="#New_Gradient_Swatch_2" y1="2.574" y2="58.703"/><linearGradient id="New_Gradient_Swatch_2-13" x1="10" x2="10" xlink:href="#New_Gradient_Swatch_2" y1="2.574" y2="58.703"/><path d="m37 18.414 7.293 7.293 1.414-1.414-2.293-2.293 2.586-2.586 6.293 6.293 1.414-1.414-7-7a1 1 0 0 0 -1.414 0l-3.293 3.293-4.293-4.293a1 1 0 0 0 -1.414 0l-8 8 1.414 1.414z" fill="url(#New_Gradient_Swatch_2)"/><path d="m58 30v-18a1 1 0 0 0 -1-1h-32a1 1 0 0 0 -1 1v18a1 1 0 0 0 1 1h16v3a1 1 0 0 0 1.625.781l4.726-3.781h9.649a1 1 0 0 0 1-1zm-2-1h-9a1 1 0 0 0 -.625.219l-3.375 2.7v-1.919a1 1 0 0 0 -1-1h-16v-16h30z" fill="url(#New_Gradient_Swatch_2)"/><path d="m51 9v-3a4 4 0 0 0 -4-4h-30a4 4 0 0 0 -4 4v52a4 4 0 0 0 4 4h30a4 4 0 0 0 4-4v-25h-2v6.8l-14-2.63v-4.17h-2v5a1 1 0 0 0 .816.983l15.184 2.847v3.17h-20a1 1 0 0 0 -.707.293l-13.218 13.218a1.96 1.96 0 0 1 -.075-.511v-6.586l12.707-12.707a1 1 0 0 0 .293-.707v-5h-2v4.586l-11 11v-18.586h7v-2h-7v-4h7v-2h-7v-16a2 2 0 0 1 2-2h20v5h2v-5h3v5h2v-5h3a2 2 0 0 1 2 2v3zm-21.586 38h19.586v11a2 2 0 0 1 -2 2h-30a1.96 1.96 0 0 1 -.511-.075z" fill="url(#New_Gradient_Swatch_2-3)"/><path d="m29 6h2v2h-2z" fill="url(#New_Gradient_Swatch_2-4)"/><path d="m33 6h2v2h-2z" fill="url(#New_Gradient_Swatch_2-5)"/><path d="m31 56h2v2h-2z" fill="url(#New_Gradient_Swatch_2-3)"/><path d="m20 32h2v2h-2z" fill="url(#New_Gradient_Swatch_2-7)"/><path d="m17 18h2v2h-2z" fill="url(#New_Gradient_Swatch_2-8)"/><path d="m30 49h2v2h-2z" fill="url(#New_Gradient_Swatch_2-9)"/><path d="m44 49h2v2h-2z" fill="url(#New_Gradient_Swatch_2-10)"/><path d="m53 53h2v2h-2z" fill="url(#New_Gradient_Swatch_2-11)"/><path d="m53 35h2v16h-2z" fill="url(#New_Gradient_Swatch_2-11)"/><path d="m9 7h2v23h-2z" fill="url(#New_Gradient_Swatch_2-13)"/></svg>