<svg height="512" viewBox="0 0 64 64" width="512" xmlns="http://www.w3.org/2000/svg" xmlns:xlink="http://www.w3.org/1999/xlink"><linearGradient id="New_Gradient_Swatch_2" gradientUnits="userSpaceOnUse" x1="39" x2="39" y1="3.301" y2="58.124"><stop offset="0" stop-color="#fc5c7d"/><stop offset=".129" stop-color="#f35e85"/><stop offset=".343" stop-color="#d9659b"/><stop offset=".616" stop-color="#b070bf"/><stop offset=".934" stop-color="#777ff0"/><stop offset="1" stop-color="#6a82fb"/></linearGradient><linearGradient id="New_Gradient_Swatch_2-2" x1="23" x2="23" xlink:href="#New_Gradient_Swatch_2" y1="3.301" y2="58.124"/><linearGradient id="New_Gradient_Swatch_2-3" x1="9.306" x2="9.306" xlink:href="#New_Gradient_Swatch_2" y1="3.301" y2="58.124"/><linearGradient id="New_Gradient_Swatch_2-4" x1="51" x2="51" xlink:href="#New_Gradient_Swatch_2" y1="3.301" y2="58.124"/><path d="m56 58v-34.184a2.993 2.993 0 0 0 -1-5.816 13.018 13.018 0 0 0 -12.119-12.971 4 4 0 0 0 -7.762 0 13.018 13.018 0 0 0 -12.119 12.971 2.993 2.993 0 0 0 -1 5.816v3.184h2v-3h30v34a2 2 0 0 1 -2 2h-12v2h12a4 4 0 0 0 4-4zm-20-51a1 1 0 0 0 1-1 2 2 0 0 1 4 0 1 1 0 0 0 1 1 11.013 11.013 0 0 1 11 11h-10a4 4 0 0 0 -8 0h-10a11.013 11.013 0 0 1 11-11zm1 11a2 2 0 0 1 4 0zm-14 2h32a1 1 0 0 1 0 2h-32a1 1 0 0 1 0-2z" fill="url(#New_Gradient_Swatch_2)"/><path d="m11 62h24a4 4 0 0 0 4-4v-7.184a2.982 2.982 0 0 0 0-5.632v-.184a13.018 13.018 0 0 0 -12.119-12.971 4 4 0 0 0 -7.762 0 13.018 13.018 0 0 0 -12.119 12.971v.184a2.982 2.982 0 0 0 0 5.632v7.184a4 4 0 0 0 4 4zm24-2h-24a2 2 0 0 1 -2-2v-7h28v7a2 2 0 0 1 -2 2zm-15-26a1 1 0 0 0 1-1 2 2 0 0 1 4 0 1 1 0 0 0 1 1 11.013 11.013 0 0 1 11 11h-10a4 4 0 0 0 -8 0h-10a11.013 11.013 0 0 1 11-11zm1 11a2 2 0 0 1 4 0zm-13 2h30a1 1 0 0 1 0 2h-30a1 1 0 0 1 0-2z" fill="url(#New_Gradient_Swatch_2-2)"/><path d="m15.313 30.75-.626-1.9a17.013 17.013 0 0 0 -11.387 12.963l1.965.374a15.011 15.011 0 0 1 10.048-11.437z" fill="url(#New_Gradient_Swatch_2-3)"/><g fill="url(#New_Gradient_Swatch_2-4)"><path d="m50 28h2v22h-2z"/><path d="m50 52h2v2h-2z"/></g></svg>