<svg height="512" viewBox="0 0 64 64" width="512" xmlns="http://www.w3.org/2000/svg" xmlns:xlink="http://www.w3.org/1999/xlink"><linearGradient id="New_Gradient_Swatch_2" gradientUnits="userSpaceOnUse" x1="55.388" x2="55.388" y1="3.301" y2="58.124"><stop offset="0" stop-color="#fc5c7d"/><stop offset=".129" stop-color="#f35e85"/><stop offset=".343" stop-color="#d9659b"/><stop offset=".616" stop-color="#b070bf"/><stop offset=".934" stop-color="#777ff0"/><stop offset="1" stop-color="#6a82fb"/></linearGradient><linearGradient id="New_Gradient_Swatch_2-2" x1="32" x2="32" xlink:href="#New_Gradient_Swatch_2" y1="3.301" y2="58.124"/><linearGradient id="New_Gradient_Swatch_2-3" x1="7.574" x2="7.574" xlink:href="#New_Gradient_Swatch_2" y1="3.301" y2="58.124"/><linearGradient id="New_Gradient_Swatch_2-4" x1="3.867" x2="3.867" xlink:href="#New_Gradient_Swatch_2" y1="3.301" y2="58.124"/><path d="m51.767 33.743-2.2 1.355 1.049 1.7 2.2-1.355a17.54 17.54 0 0 0 8.271-12.964 17.986 17.986 0 0 0 .09-3.162l-2 .121a16.1 16.1 0 0 1 -.08 2.809 15.555 15.555 0 0 1 -7.33 11.496z" fill="url(#New_Gradient_Swatch_2)"/><path d="m44.849 6.85a13.731 13.731 0 0 0 -8.7 2.129l1.085 1.678a11.754 11.754 0 0 1 7.432-1.816 11.637 11.637 0 0 1 5.004 21.495l-4.087 2.519-1.453-1.455 4.487-2.765a9.639 9.639 0 0 0 -6.173-17.783 9.763 9.763 0 0 0 -4.279 1.585l1.119 1.663a7.642 7.642 0 1 1 8.285 12.838l-4.892 3.012-1.459-1.46 5.307-3.261a5.639 5.639 0 1 0 -6.362-9.3l1.211 1.591a3.64 3.64 0 1 1 4.1 6l-5.714 3.511-2.852-2.851a8.991 8.991 0 0 0 -.666-11.98l-2.121-2.122a3 3 0 0 0 -4.242 4.243l.89.891-1.216 1.975a2.98 2.98 0 0 0 -4.075 2.663 2.9 2.9 0 0 0 -2.827 2.8 2.957 2.957 0 0 0 -2.83 2.855 2.971 2.971 0 0 0 -1.963.835 3 3 0 0 0 -.67 3.21l-3.907 2.408a13.638 13.638 0 0 0 5.87 25.189q.631.06 1.265.059a13.722 13.722 0 0 0 7.438-2.188l-1.085-1.678a11.728 11.728 0 0 1 -7.432 1.816 11.637 11.637 0 0 1 -5.007-21.492l4.087-2.519 1.453 1.455-4.487 2.765a9.638 9.638 0 0 0 5.043 17.845 10.009 10.009 0 0 0 1.13-.065 9.763 9.763 0 0 0 4.279-1.585l-1.119-1.66a7.642 7.642 0 1 1 -8.285-12.838l4.892-3.015 1.459 1.46-5.307 3.261a5.637 5.637 0 0 0 2.955 10.441 5.827 5.827 0 0 0 .657-.037 5.642 5.642 0 0 0 2.75-1.1l-1.211-1.591a3.64 3.64 0 1 1 -4.1-6l5.714-3.511 2.856 2.856a8.991 8.991 0 0 0 .662 11.974l2.121 2.122a3 3 0 0 0 4.242-4.243l-.89-.891 1.216-1.975a2.977 2.977 0 0 0 4.072-2.635 2.957 2.957 0 0 0 2.83-2.83 2.954 2.954 0 0 0 2.827-2.827 2.971 2.971 0 0 0 1.966-.863 3 3 0 0 0 .67-3.21l3.907-2.408a13.636 13.636 0 0 0 2.494-21.252 13.456 13.456 0 0 0 -8.364-3.938zm-13.556 4.644a1 1 0 0 1 1.414 0l2.121 2.121a6.984 6.984 0 0 1 .652 9.137l-1.43-1.43a5 5 0 0 0 -.636-6.293l-2.121-2.121a1 1 0 0 1 0-1.414zm1.586 7.071a2.991 2.991 0 0 1 -.3 1.286l-1.434-1.434 1.061-1.723a2.968 2.968 0 0 1 .673 1.871zm-.172 33.941a1 1 0 0 1 -1.414 0l-2.121-2.121a6.984 6.984 0 0 1 -.652-9.137l1.43 1.43a5 5 0 0 0 .636 6.293l2.121 2.121a1 1 0 0 1 0 1.414zm-1.586-7.071a2.991 2.991 0 0 1 .3-1.286l1.434 1.434-1.061 1.723a2.968 2.968 0 0 1 -.673-1.871zm5.122-.707a1 1 0 0 1 -1.415 0l-15.556-15.556a1 1 0 0 1 0-1.415 1.024 1.024 0 0 1 1.414 0l15.556 15.556a1 1 0 0 1 .001 1.415zm2.828-2.828a1.022 1.022 0 0 1 -1.413 0l-15.558-15.557a1 1 0 0 1 1.414-1.414l15.557 15.557a1 1 0 0 1 0 1.413zm2.829-2.829a1 1 0 0 1 -1.414 0l-15.557-15.557a1 1 0 0 1 0-1.413 1.024 1.024 0 0 1 1.414 0l15.557 15.556a1 1 0 0 1 0 1.414zm2.828-2.828a1.024 1.024 0 0 1 -1.414 0l-15.556-15.556a1 1 0 1 1 1.414-1.415l15.556 15.556a1 1 0 0 1 -.001 1.415z" fill="url(#New_Gradient_Swatch_2-2)"/><path d="m12.233 30.258-1.048-1.7a17.54 17.54 0 0 0 -8.271 12.96l1.986.233a15.552 15.552 0 0 1 7.333-11.493z" fill="url(#New_Gradient_Swatch_2-3)"/><path d="m4.941 45.768a15.826 15.826 0 0 1 -.148-2.368l-2-.025a17.715 17.715 0 0 0 .168 2.665z" fill="url(#New_Gradient_Swatch_2-4)"/></svg>