<svg height="512" viewBox="0 0 64 64" width="512" xmlns="http://www.w3.org/2000/svg" xmlns:xlink="http://www.w3.org/1999/xlink"><linearGradient id="New_Gradient_Swatch_2" gradientUnits="userSpaceOnUse" x1="18" x2="18" y1="2.099" y2="58.719"><stop offset="0" stop-color="#fc5c7d"/><stop offset=".129" stop-color="#f35e85"/><stop offset=".343" stop-color="#d9659b"/><stop offset=".616" stop-color="#b070bf"/><stop offset=".934" stop-color="#777ff0"/><stop offset="1" stop-color="#6a82fb"/></linearGradient><linearGradient id="New_Gradient_Swatch_2-2" x1="40" x2="40" xlink:href="#New_Gradient_Swatch_2" y1="2.099" y2="58.719"/><linearGradient id="New_Gradient_Swatch_2-3" x1="50" x2="50" xlink:href="#New_Gradient_Swatch_2" y1="2.099" y2="58.719"/><linearGradient id="New_Gradient_Swatch_2-5" x1="29" x2="29" xlink:href="#New_Gradient_Swatch_2" y1="2.099" y2="58.719"/><linearGradient id="New_Gradient_Swatch_2-6" x1="42.5" x2="42.5" xlink:href="#New_Gradient_Swatch_2" y1="2.099" y2="58.719"/><linearGradient id="New_Gradient_Swatch_2-7" x1="16" x2="16" xlink:href="#New_Gradient_Swatch_2" y1="2.099" y2="58.719"/><linearGradient id="New_Gradient_Swatch_2-8" x1="20" x2="20" xlink:href="#New_Gradient_Swatch_2" y1="2.099" y2="58.719"/><path d="m31 53a1 1 0 0 1 -1 1h-1.161a19.656 19.656 0 0 0 .161-2.472v-4.528a3 3 0 0 0 -3-3 2.967 2.967 0 0 0 -1.471.4 2.972 2.972 0 0 0 -3.645-1.181 2.95 2.95 0 0 0 -3.884-2.035v-2.184a3 3 0 0 0 -6 0v9.382l-1.051.525a5.308 5.308 0 0 0 -2.949 4.773c0 .108.013.213.02.32h-1.02a1 1 0 0 1 -1-1v-40a1 1 0 0 1 1-1h15v-2h-15a3 3 0 0 0 -3 3v40a3 3 0 0 0 3 3h1.539a5.318 5.318 0 0 0 1.837 2.119l2.733 1.822a2 2 0 0 1 .891 1.664v2.395h2v-2.4a3.993 3.993 0 0 0 -1.781-3.328l-2.734-1.822a3.336 3.336 0 0 1 .359-5.759l.156-.073v2.382h2v-14a1 1 0 0 1 2 0v9h2v-4a1 1 0 0 1 2 0v5h2v-3a1 1 0 0 1 2 0v4h2v-3a1 1 0 0 1 2 0v4.528a18.03 18.03 0 0 1 -1.895 8.025 1 1 0 0 0 -.105.447v4h2v-3.768a19.979 19.979 0 0 0 1.489-4.232h1.511a3 3 0 0 0 3-3v-13h-2z" fill="url(#New_Gradient_Swatch_2)"/><path d="m58 2h-31a4 4 0 0 0 -4 4v15.52l-4.625 3.7a1 1 0 0 0 0 1.562l4.625 3.698v3.52a4 4 0 0 0 4 4h31a4 4 0 0 0 4-4v-28a4 4 0 0 0 -4-4zm2 32a2 2 0 0 1 -2 2h-31a2 2 0 0 1 -2-2v-4a1 1 0 0 0 -.375-.781l-4.025-3.219 4.024-3.219a1 1 0 0 0 .376-.781v-16a2 2 0 0 1 2-2h31a2 2 0 0 1 2 2z" fill="url(#New_Gradient_Swatch_2-2)"/><path d="m50 11a3 3 0 1 0 3 3 3 3 0 0 0 -3-3zm0 4a1 1 0 1 1 1-1 1 1 0 0 1 -1 1z" fill="url(#New_Gradient_Swatch_2-3)"/><path d="m50 7a7.009 7.009 0 0 0 -7 7c0 5.554 6.285 8.761 6.553 8.9a1 1 0 0 0 .894 0c.268-.139 6.553-3.346 6.553-8.9a7.009 7.009 0 0 0 -7-7zm0 13.854c-1.3-.774-5-3.284-5-6.854a5 5 0 0 1 10 0c0 3.57-3.7 6.08-5 6.854z" fill="url(#New_Gradient_Swatch_2-3)"/><path d="m28 31h2v2h-2z" fill="url(#New_Gradient_Swatch_2-5)"/><path d="m54 27h-2a1 1 0 0 1 -1-1v-1h-2v1a3 3 0 0 0 3 3h2a1 1 0 0 1 0 2h-10a1 1 0 0 1 -1-1v-9a3 3 0 0 0 -6 0v9a1 1 0 0 1 -2 0v-19.5a3.5 3.5 0 0 0 -7 0v18.5h2v-18.5a1.5 1.5 0 0 1 3 0v19.5a3 3 0 0 0 6 0v-9a1 1 0 0 1 2 0v9a3 3 0 0 0 3 3h10a3 3 0 0 0 0-6z" fill="url(#New_Gradient_Swatch_2-6)"/><path d="m15 14h2v2h-2z" fill="url(#New_Gradient_Swatch_2-7)"/><path d="m19 14h2v2h-2z" fill="url(#New_Gradient_Swatch_2-8)"/></svg>