<svg height="512" viewBox="0 0 64 64" width="512" xmlns="http://www.w3.org/2000/svg" xmlns:xlink="http://www.w3.org/1999/xlink"><linearGradient id="New_Gradient_Swatch_2" gradientTransform="matrix(.062 .998 -.998 .062 93.68 -5.717)" gradientUnits="userSpaceOnUse" x1="49.883" x2="49.883" y1="2.574" y2="58.703"><stop offset="0" stop-color="#fc5c7d"/><stop offset=".129" stop-color="#f35e85"/><stop offset=".343" stop-color="#d9659b"/><stop offset=".616" stop-color="#b070bf"/><stop offset=".934" stop-color="#777ff0"/><stop offset="1" stop-color="#6a82fb"/></linearGradient><linearGradient id="New_Gradient_Swatch_2-2" x1="13.612" x2="13.612" xlink:href="#New_Gradient_Swatch_2" y1="2.574" y2="58.703"/><linearGradient id="New_Gradient_Swatch_2-3" gradientTransform="matrix(.998 .062 -.062 .998 2.339 -.771)" x1="13.492" x2="13.492" xlink:href="#New_Gradient_Swatch_2" y1="2.574" y2="58.703"/><linearGradient id="New_Gradient_Swatch_2-4" x1="32" x2="32" xlink:href="#New_Gradient_Swatch_2" y1="2.574" y2="58.703"/><path d="m39.863 46h20.039v2h-20.039z" fill="url(#New_Gradient_Swatch_2)" transform="matrix(.062 -.998 .998 .062 -.137 93.854)"/><path d="m11.478 20.8.829 13.265 2-.124-.829-13.266a10.149 10.149 0 0 1 2.3-7.042l-1.54-1.276a12.01 12.01 0 0 0 -2.76 8.443z" fill="url(#New_Gradient_Swatch_2-2)"/><path d="m12.492 35.998h2v2.004h-2z" fill="url(#New_Gradient_Swatch_2-3)" transform="matrix(.998 -.062 .062 .998 -2.286 .916)"/><g fill="url(#New_Gradient_Swatch_2-4)"><path d="m41.29 12.038-.865-3.46a8.684 8.684 0 0 0 -16.85 0l-.865 3.46a8.047 8.047 0 0 0 -7.24 8.51l2.356 37.7a4.006 4.006 0 0 0 3.992 3.752h20.364a4.006 4.006 0 0 0 3.992-3.75l2.356-37.7a8.047 8.047 0 0 0 -7.24-8.51zm.892 47.962h-20.364a2 2 0 0 1 -2-1.875l-.7-11.289a26.064 26.064 0 0 0 12.882 3.164 26.955 26.955 0 0 0 11.427-2.388l-.854-1.812a24.945 24.945 0 0 1 -10.573 2.2 22.982 22.982 0 0 1 -13.038-3.639l-.756-12.1a25.374 25.374 0 0 0 13.794 3.739 28.958 28.958 0 0 0 7.25-.9l-.5-1.936a27 27 0 0 1 -6.75.836c-5.585 0-10.755-1.631-13.958-4.362l-.292-4.67a20.794 20.794 0 0 0 6.47 3l.541-1.925a17.176 17.176 0 0 1 -7.181-3.792l-.114-1.823a6.036 6.036 0 0 1 .348-2.446 20.481 20.481 0 0 0 5.9 2.835l.582-1.913a18.252 18.252 0 0 1 -5.474-2.667c.089-.11.178-.221.276-.325a5.987 5.987 0 0 1 4.402-1.912 1 1 0 0 0 .97-.757l1.045-4.18a6.685 6.685 0 0 1 12.97 0l.735 2.937h-2.063l-.613-2.451a4.682 4.682 0 0 0 -5.156-3.509 4.848 4.848 0 0 0 -3.977 3.688l-1.758 7.029v.026a.909.909 0 0 0 -.014.139 1 1 0 0 0 -.007.154v.029l1.377 13a1 1 0 0 0 .837.883l17.854 2.843-.2 3.184c-3.218 2.495-8.212 3.985-13.5 3.985a24.9 24.9 0 0 1 -10.572-2.2l-.856 1.809a26.922 26.922 0 0 0 11.428 2.391 25.485 25.485 0 0 0 13.338-3.438l-.757 12.107a23.46 23.46 0 0 1 -12.581 3.331 26.329 26.329 0 0 1 -8.667-1.413l-.666 1.886a28.343 28.343 0 0 0 9.333 1.527 26.473 26.473 0 0 0 12.43-2.91l-.252 4.035a2 2 0 0 1 -1.996 1.875zm.963-28.6-14.231-2.267-1.045-9.866zm3.389-10.976-.662 10.588-18.123-14.395 1.6-6.4a2.84 2.84 0 0 1 2.293-2.19 2.688 2.688 0 0 1 2.96 2.011l.8 3.209a1 1 0 0 0 .97.757h4.128a6.046 6.046 0 0 1 6.034 6.423z"/><path d="m31 26h2v2h-2z"/></g></svg>