<svg height="512" viewBox="0 0 64 64" width="512" xmlns="http://www.w3.org/2000/svg" xmlns:xlink="http://www.w3.org/1999/xlink"><linearGradient id="New_Gradient_Swatch_2" gradientUnits="userSpaceOnUse" x1="17.858" x2="17.858" y1="3.301" y2="58.124"><stop offset="0" stop-color="#fc5c7d"/><stop offset=".129" stop-color="#f35e85"/><stop offset=".343" stop-color="#d9659b"/><stop offset=".616" stop-color="#b070bf"/><stop offset=".934" stop-color="#777ff0"/><stop offset="1" stop-color="#6a82fb"/></linearGradient><linearGradient id="New_Gradient_Swatch_2-2" x1="32" x2="32" xlink:href="#New_Gradient_Swatch_2" y1="3.301" y2="58.124"/><linearGradient id="New_Gradient_Swatch_2-3" x1="46" x2="46" xlink:href="#New_Gradient_Swatch_2" y1="3.301" y2="58.124"/><linearGradient id="New_Gradient_Swatch_2-4" x1="27" x2="27" xlink:href="#New_Gradient_Swatch_2" y1="3.301" y2="58.124"/><linearGradient id="New_Gradient_Swatch_2-5" x1="40" x2="40" xlink:href="#New_Gradient_Swatch_2" y1="3.301" y2="58.124"/><linearGradient id="New_Gradient_Swatch_2-6" x1="43" x2="43" xlink:href="#New_Gradient_Swatch_2" y1="3.301" y2="58.124"/><path d="m19.979 14.322-2.121 2.122-2.122-2.122-1.414 1.414 2.122 2.122-2.122 2.121 1.414 1.415 2.122-2.122 2.121 2.122 1.415-1.415-2.122-2.121 2.122-2.122z" fill="url(#New_Gradient_Swatch_2)"/><path d="m31 48v-2h-24a1 1 0 0 0 -1 1v10a1 1 0 0 0 1 1h41v-.025c.171.009.342.025.515.025a9.485 9.485 0 0 0 6.707-16.192l-33.03-33.03a9.639 9.639 0 0 0 -.892-.778h34.644a9.012 9.012 0 0 1 -8.944 8h-14v2h14a11.013 11.013 0 0 0 11-11 1 1 0 0 0 -1-1h-41v.025c-.171-.009-.342-.025-.515-.025a9.485 9.485 0 0 0 -6.707 16.192l33.03 33.03a9.639 9.639 0 0 0 .892.778h-9.7v-5h-2v5h-2v-3h-2v3h-2v-5h-2v5h-2v-3h-2v3h-2v-5h-2v5h-2v-3h-2v3h-3v-8zm2.414-20 2.586-2.586 1.586 1.586-2.586 2.586zm5.586.414 1.586 1.586-2.586 2.586-1.586-1.586zm3 3 1.586 1.586-2.586 2.586-1.586-1.586zm3 3 1.586 1.586-2.586 2.586-1.586-1.586zm3 3 1.586 1.586-2.586 2.586-1.586-1.586zm-37.808-16.636a7.485 7.485 0 0 1 10.586-10.586l13.808 13.808-3.293 3.293a1 1 0 0 0 0 1.414l15 15a1 1 0 0 0 1.414 0l3.293-3.293 2.808 2.808a7.485 7.485 0 0 1 -10.586 10.586z" fill="url(#New_Gradient_Swatch_2-2)"/><path d="m41 10h10v2h-10z" fill="url(#New_Gradient_Swatch_2-3)"/><path d="m14 2h26v2h-26z" fill="url(#New_Gradient_Swatch_2-4)"/><path d="m27 60h26v2h-26z" fill="url(#New_Gradient_Swatch_2-5)"/><path d="m42 2h2v2h-2z" fill="url(#New_Gradient_Swatch_2-6)"/></svg>