<svg height="512" viewBox="0 0 64 64" width="512" xmlns="http://www.w3.org/2000/svg" xmlns:xlink="http://www.w3.org/1999/xlink"><linearGradient id="New_Gradient_Swatch_2" gradientUnits="userSpaceOnUse" x1="32" x2="32" y1="2.574" y2="58.703"><stop offset="0" stop-color="#fc5c7d"/><stop offset=".129" stop-color="#f35e85"/><stop offset=".343" stop-color="#d9659b"/><stop offset=".616" stop-color="#b070bf"/><stop offset=".934" stop-color="#777ff0"/><stop offset="1" stop-color="#6a82fb"/></linearGradient><linearGradient id="New_Gradient_Swatch_2-2" x1="15.978" x2="15.978" xlink:href="#New_Gradient_Swatch_2" y1="2.574" y2="58.703"/><linearGradient id="New_Gradient_Swatch_2-3" x1="51.169" x2="51.169" xlink:href="#New_Gradient_Swatch_2" y1="2.574" y2="58.703"/><linearGradient id="New_Gradient_Swatch_2-4" x1="35.859" x2="35.859" xlink:href="#New_Gradient_Swatch_2" y1="2.574" y2="58.703"/><linearGradient id="New_Gradient_Swatch_2-5" x1="12" x2="12" xlink:href="#New_Gradient_Swatch_2" y1="2.574" y2="58.703"/><linearGradient id="New_Gradient_Swatch_2-6" x1="43" x2="43" xlink:href="#New_Gradient_Swatch_2" y1="2.574" y2="58.703"/><linearGradient id="New_Gradient_Swatch_2-7" x1="22" x2="22" xlink:href="#New_Gradient_Swatch_2" y1="2.574" y2="58.703"/><linearGradient id="New_Gradient_Swatch_2-8" x1="54" x2="54" xlink:href="#New_Gradient_Swatch_2" y1="2.574" y2="58.703"/><linearGradient id="New_Gradient_Swatch_2-9" x1="19" x2="19" xlink:href="#New_Gradient_Swatch_2" y1="2.574" y2="58.703"/><linearGradient id="New_Gradient_Swatch_2-10" x1="46" x2="46" xlink:href="#New_Gradient_Swatch_2" y1="2.574" y2="58.703"/><path d="m60 58.586-5.238-5.238-3.922-5.348h.16v-8a4 4 0 0 0 4-4v-4h-2v4a2 2 0 0 1 -2 2v-15h-2v12a2 2 0 0 1 -2-2v-4h-2v4a4 4 0 0 0 4 4v8.491l-16-21.819v-8.672h7a1 1 0 0 0 1-1v-5a1 1 0 0 0 -1-1h-7v-2h-2v17.672l-16 21.819v-8.491a4 4 0 0 0 4-4v-6h-2v6a2 2 0 0 1 -2 2v-9h-2v12a2 2 0 0 1 -2-2v-6h-2v6a4 4 0 0 0 4 4v8h.16l-3.922 5.348-5.238 5.238v-1.586h-2v4a1 1 0 0 0 1.707.707l5.293-5.293v4.586a1 1 0 0 0 1 1h44a1 1 0 0 0 1-1v-4.586l5.293 5.293a1 1 0 0 0 1.707-.707v-4h-2zm-21-48.586v3h-6v-3zm-6.579 30.122 7.156 19.878h-12.163l2.293-2.293a1 1 0 0 0 .283-.565zm2.971 2.347 10.194 14.272-4.078 2.718zm17.608 17.531h-8.7l3.252-2.168a1 1 0 0 0 .259-1.413l-15-21a1 1 0 0 0 -1.278-.3.99.99 0 0 0 -.512.746h-.014l-2.95 20.664-3.471 3.471h-13.586v-5.673l21-28.636 21 28.636z" fill="url(#New_Gradient_Swatch_2)"/><path d="m6.571 34.229.858-1.806a5.994 5.994 0 0 1 -1.355-9.952 1 1 0 0 0 .3-1.057 7.99 7.99 0 0 1 4.982-9.956 1 1 0 0 0 .667-.875 6 6 0 1 1 11.885 1.432 1 1 0 0 0 .428 1 6 6 0 0 1 2.192 7.325 1 1 0 0 0 .2 1.088 8.035 8.035 0 0 1 1.435 2.02l1.79-.892a10.023 10.023 0 0 0 -1.353-2.049 8.007 8.007 0 0 0 -2.636-8.78c.025-.25.037-.491.037-.727a8 8 0 0 0 -15.901-1.2 9.995 9.995 0 0 0 -5.808 11.6 7.993 7.993 0 0 0 2.279 12.829z" fill="url(#New_Gradient_Swatch_2-2)"/><path d="m60.061 19a10.01 10.01 0 0 0 -6.1-9.2 8.021 8.021 0 0 0 -7.9-6.8 7.929 7.929 0 0 0 -5.784 2.473l1.446 1.382a5.949 5.949 0 0 1 4.338-1.855 6.012 6.012 0 0 1 5.978 5.583 1 1 0 0 0 .667.875 7.99 7.99 0 0 1 4.982 9.956 1 1 0 0 0 .3 1.057 5.994 5.994 0 0 1 -1.355 9.952l.858 1.806a7.993 7.993 0 0 0 2.278-12.829 10.01 10.01 0 0 0 .292-2.4z" fill="url(#New_Gradient_Swatch_2-3)"/><path d="m35.9 23.446a8.05 8.05 0 0 1 1.435-2.02 1 1 0 0 0 .2-1.088 5.953 5.953 0 0 1 -.474-2.338 6.091 6.091 0 0 1 .061-.858l-1.98-.284a8.054 8.054 0 0 0 .32 3.649 10.009 10.009 0 0 0 -1.362 2.047z" fill="url(#New_Gradient_Swatch_2-4)"/><path d="m11 16h2v2h-2z" fill="url(#New_Gradient_Swatch_2-5)"/><path d="m42 22h2v2h-2z" fill="url(#New_Gradient_Swatch_2-6)"/><path d="m21 21h2v2h-2z" fill="url(#New_Gradient_Swatch_2-7)"/><path d="m53 17h2v2h-2z" fill="url(#New_Gradient_Swatch_2-8)"/><path d="m18 10h2v2h-2z" fill="url(#New_Gradient_Swatch_2-9)"/><path d="m45 9h2v2h-2z" fill="url(#New_Gradient_Swatch_2-10)"/></svg>