<svg height="512" viewBox="0 0 64 64" width="512" xmlns="http://www.w3.org/2000/svg" xmlns:xlink="http://www.w3.org/1999/xlink"><linearGradient id="New_Gradient_Swatch_2" gradientUnits="userSpaceOnUse" x1="13" x2="13" y1="2.099" y2="58.719"><stop offset="0" stop-color="#fc5c7d"/><stop offset=".129" stop-color="#f35e85"/><stop offset=".343" stop-color="#d9659b"/><stop offset=".616" stop-color="#b070bf"/><stop offset=".934" stop-color="#777ff0"/><stop offset="1" stop-color="#6a82fb"/></linearGradient><linearGradient id="New_Gradient_Swatch_2-2" x1="25" x2="25" xlink:href="#New_Gradient_Swatch_2" y1="2.099" y2="58.719"/><linearGradient id="New_Gradient_Swatch_2-3" x1="32" x2="32" xlink:href="#New_Gradient_Swatch_2" y1="2.099" y2="58.719"/><linearGradient id="New_Gradient_Swatch_2-4" x1="19" x2="19" xlink:href="#New_Gradient_Swatch_2" y1="2.099" y2="58.719"/><linearGradient id="New_Gradient_Swatch_2-5" x1="22" x2="22" xlink:href="#New_Gradient_Swatch_2" y1="2.099" y2="58.719"/><path d="m13 52a3 3 0 1 0 3 3 3 3 0 0 0 -3-3zm0 4a1 1 0 1 1 1-1 1 1 0 0 1 -1 1z" fill="url(#New_Gradient_Swatch_2)"/><path d="m25 52a3 3 0 1 0 3 3 3 3 0 0 0 -3-3zm0 4a1 1 0 1 1 1-1 1 1 0 0 1 -1 1z" fill="url(#New_Gradient_Swatch_2-2)"/><path d="m59 50a3 3 0 0 0 -2.816 2h-2.184v-2a1 1 0 0 0 -.628-.929l-4.372-1.748v-18.323a12.013 12.013 0 0 0 -12-12h-1v-1a3 3 0 0 0 -3-3h-24a3 3 0 0 0 -3 3v1h-3a1 1 0 0 0 -1 1v37a1 1 0 0 0 1 1h3.08a6.987 6.987 0 0 0 12.92 2.587 6.987 6.987 0 0 0 12.92-2.587h2.08v3a1 1 0 0 0 1 1h9a1 1 0 0 0 1-1v-3h8a1 1 0 0 0 1-1v-1h2.184a2.995 2.995 0 1 0 2.816-4zm-25-34v1h-2v-2h1a1 1 0 0 1 1 1zm-22 1v-2h2v2zm4-2h2v2h-2zm4 0h2v2h-2zm4 0h2v2h-2zm4 0h2v2h-2zm-20 1a1 1 0 0 1 1-1h1v2h-2zm5 44a5 5 0 1 1 5-5 5.006 5.006 0 0 1 -5 5zm12 0a5 5 0 1 1 5-5 5.006 5.006 0 0 1 -5 5zm18-2h-7v-2h7zm-7-17h2v-2h-2v-9h7v20h-7zm0 11h7v2h-7zm16 2h-7v-25a1 1 0 0 0 -1-1h-9a1 1 0 0 0 -1 1v25h-2.08a6.987 6.987 0 0 0 -12.92-2.587 6.987 6.987 0 0 0 -12.92 2.587h-2.08v-35h33a10.011 10.011 0 0 1 10 10v19a1 1 0 0 0 .628.929l4.372 1.748zm7 0a1 1 0 1 1 1-1 1 1 0 0 1 -1 1z" fill="url(#New_Gradient_Swatch_2-3)"/><path d="m31 28h-24a1 1 0 0 0 -1 1v8a1 1 0 0 0 1 1h24a1 1 0 0 0 1-1v-8a1 1 0 0 0 -1-1zm-1 2v2h-22v-2zm-22 6v-2h22v2z" fill="url(#New_Gradient_Swatch_2-4)"/><path d="m6 21h32v2h-32z" fill="url(#New_Gradient_Swatch_2-5)"/></svg>